<svg width="30" height="30" viewBox="0 0 30 30" fill="none" xmlns="http://www.w3.org/2000/svg">
<g clip-path="url(#clip0_321_6762)">
<rect x="0.422852" y="0.723633" width="29.1892" height="29.1892" rx="14.5946" transform="rotate(-0.173721 0.422852 0.723633)" fill="#FF78B9"/>
<path d="M24.2223 34.9596C25.208 32.8768 22.5379 29.5468 18.2583 27.5214C13.979 25.4961 9.71065 25.5426 8.725 27.6255C7.73934 29.7081 10.4094 33.0383 14.689 35.0636C18.9683 37.0888 23.2366 37.0422 24.2223 34.9596Z" fill="black"/>
<path d="M24.7422 23.4418C23.4736 22.6569 23.4114 22.6779 22.7018 21.4139C21.9923 20.1498 21.0978 19.5298 20.0596 19.3877L21.3747 28.7035C24.0755 29.4841 25.7319 28.1091 26.1014 26.7588C26.4709 25.4085 26.0315 24.2267 24.7422 23.4418Z" fill="#3442D9"/>
<path d="M23.4791 24.6705C23.1217 23.1563 22.1823 21.3948 21.0781 20.0697C20.6825 19.591 20.4012 19.0283 20.2555 18.4245C20.1099 17.8207 20.1036 17.1917 20.2373 16.5851L20.6877 14.5081C21.0044 13.0665 20.8286 11.5604 20.1888 10.2303C19.5487 8.90029 18.4815 7.82311 17.1575 7.17088C16.3977 6.79966 15.5713 6.58343 14.727 6.53478C13.1382 6.42324 11.5684 6.93519 10.3508 7.96195C9.13322 8.98872 8.36363 10.4495 8.20529 12.0344C8.17165 12.3029 8.15856 12.5735 8.16623 12.844L8.16894 13.7365L8.22178 17.4726C8.27191 19.151 7.92119 20.817 7.19867 22.3328C6.89869 22.9342 6.67084 23.569 6.51943 24.2237L16.7022 34.9864C21.536 34.1622 24.5523 29.4828 23.4791 24.6705Z" fill="#3442D9"/>
<path d="M16.7232 34.986C21.5363 34.1619 24.5526 29.4824 23.4794 24.6701C23.143 23.2389 22.2869 21.581 21.2659 20.2971" stroke="black" stroke-miterlimit="10" stroke-linecap="round"/>
<path d="M20.2423 24.9917C21.1924 23.4113 21.5666 23.6177 23.27 24.0692C24.641 24.4179 26.227 27.2153 24.1349 28.6331C22.0428 30.0509 17.7643 29.2129 20.2423 24.9917Z" fill="#3442D9"/>
<path d="M15.4958 20.3537C15.6868 20.2068 15.7166 19.9259 15.5628 19.7259C15.4091 19.526 15.1297 19.4831 14.939 19.6298C14.7483 19.7767 14.7182 20.0576 14.872 20.2575C15.0258 20.4575 15.3051 20.5004 15.4958 20.3537Z" fill="black"/>
<path d="M18.1113 20.5079C18.302 20.3612 18.3321 20.0801 18.1783 19.8802C18.0245 19.6804 17.7452 19.6372 17.5543 19.7842C17.3635 19.9309 17.3334 20.212 17.4872 20.4118C17.641 20.6117 17.9203 20.6548 18.1113 20.5079Z" fill="black"/>
<path d="M17.8408 20.1831C20.0673 22.003 19.158 23.3134 20.9512 26.0064" stroke="white" stroke-miterlimit="10" stroke-linecap="round"/>
<path d="M15.3411 24.2798C16.7081 23.3208 17.1224 23.0497 17.6414 23.0689L18.991 23.1894L18.6547 28.6702L15.2296 28.5768L15.3411 24.2798Z" fill="#FFC619"/>
<path d="M21.9797 22.8691C22.0055 22.7966 22.0137 22.719 22.0044 22.6426C21.995 22.5663 21.968 22.4931 21.9257 22.4288C21.8831 22.3646 21.8265 22.311 21.76 22.2724C21.6932 22.2338 21.6186 22.2112 21.5418 22.2063L19.2576 21.8811C19.0919 21.8639 18.9251 21.9043 18.7857 21.9954C18.6461 22.0865 18.5421 22.2228 18.4911 22.3816L17.2187 27.1595C17.1931 27.2322 17.1847 27.3097 17.194 27.386C17.2034 27.4624 17.2304 27.5356 17.2727 27.5998C17.3153 27.664 17.3719 27.7176 17.4386 27.7562C17.5052 27.7948 17.5798 27.8174 17.6566 27.8224L19.9408 28.1476C20.1067 28.1647 20.2733 28.1243 20.4129 28.0332C20.5523 27.9421 20.6563 27.8058 20.7073 27.6471L21.9797 22.8691Z" fill="black"/>
<path d="M21.8744 22.3922L22.1243 22.6821L21.4395 22.7464L21.8744 22.3922Z" fill="black"/>
<path d="M23.0045 25.5437C22.7124 25.0672 22.4408 24.4661 21.6516 24.3439L21.5509 25.3406L23.0045 25.5437Z" fill="#FFC619"/>
<path d="M22.2084 23.1382C22.2299 23.0656 22.2353 22.9892 22.2241 22.9143C22.2129 22.8395 22.1855 22.7679 22.1437 22.7047C22.102 22.6416 22.0471 22.5884 21.9826 22.5487C21.9181 22.5091 21.8456 22.484 21.7705 22.4753L19.4655 22.1501C19.3004 22.1367 19.1353 22.1788 18.9967 22.2693C18.8579 22.36 18.7531 22.494 18.699 22.6506L17.4265 27.4286C17.405 27.5011 17.3996 27.5775 17.4108 27.6524C17.4221 27.7273 17.4495 27.7988 17.4912 27.862C17.5329 27.9252 17.5878 27.9785 17.6523 28.018C17.717 28.0577 17.7893 28.0828 17.8644 28.0915L20.1694 28.3958C20.3309 28.4219 20.4965 28.3871 20.634 28.2987C20.7716 28.2101 20.8719 28.074 20.9152 27.9162L22.2084 23.1382Z" fill="white"/>
<path d="M21.5089 25.0295L22.4434 25.1719C22.6328 25.1923 22.8064 25.2862 22.9272 25.4332C23.0481 25.5805 23.1061 25.7692 23.0893 25.9587C23.0848 26.0573 23.0598 26.1539 23.0158 26.2423C22.9717 26.3304 22.9096 26.4087 22.8337 26.4714C22.7575 26.5343 22.6692 26.5804 22.574 26.6069C22.479 26.6335 22.3794 26.6398 22.2818 26.6254L21.5965 26.5237C21.3837 26.4938 21.1866 26.3944 21.0358 26.241C20.8853 26.0875 20.7896 25.8887 20.7637 25.6752C20.7582 25.5801 20.7747 25.485 20.8118 25.3973C20.8489 25.3096 20.9057 25.2316 20.9776 25.1691C21.0496 25.1068 21.135 25.0617 21.2271 25.0376C21.3192 25.0134 21.4157 25.0106 21.5089 25.0295Z" fill="#FFC619"/>
<path d="M21.2019 26.4208L21.8456 26.5227C21.9534 26.536 22.0569 26.5725 22.149 26.6297C22.2411 26.6869 22.3196 26.7637 22.379 26.8542C22.4387 26.9449 22.4778 27.0476 22.4937 27.1548C22.5096 27.2621 22.5018 27.3715 22.4712 27.4756C22.4275 27.643 22.3221 27.7878 22.176 27.8806C22.03 27.9734 21.8543 28.0076 21.684 27.9761L21.2894 27.9151C21.0741 27.886 20.8741 27.7874 20.72 27.6343C20.566 27.4812 20.4661 27.2818 20.4358 27.0666C20.4295 26.9693 20.4462 26.8721 20.4843 26.7823C20.5227 26.6927 20.5814 26.6133 20.6559 26.5504C20.7305 26.4877 20.8185 26.4432 20.9135 26.4207C21.0083 26.3982 21.1071 26.3983 21.2019 26.4208Z" fill="#FFC619"/>
<path d="M19.1946 28.793L16.952 28.4885L17.053 27.5749L19.2957 27.9002L19.1946 28.793Z" fill="#FFC619"/>
<path d="M19.7237 25.1589L18.3116 24.9556C18.2444 24.9467 18.1812 24.9185 18.1294 24.8746C18.0777 24.8306 18.0398 24.7726 18.0203 24.7074L17.8946 24.3342L17.7885 23.5665L17.0287 26.2672L19.3129 26.5924C19.5256 26.6202 19.7413 26.5755 19.9255 26.4658C20.1097 26.3561 20.2516 26.1877 20.3282 25.9874C20.3526 25.8924 20.3556 25.7932 20.3373 25.697C20.3187 25.6007 20.2792 25.5097 20.2215 25.4306C20.1637 25.3513 20.089 25.2859 20.0031 25.239C19.9171 25.192 19.8217 25.1647 19.7237 25.1589Z" fill="#FFC619"/>
<path d="M19.271 26.5721L17.0283 26.2676L17.1366 27.7617L18.8602 28.0056C19.0706 28.0363 19.2848 27.9925 19.4663 27.8821C19.6478 27.7718 19.7851 27.6014 19.8547 27.4006C19.8828 27.3071 19.8894 27.2085 19.8739 27.1121C19.8583 27.0156 19.8209 26.9242 19.7648 26.8442C19.7085 26.7645 19.6348 26.6985 19.5492 26.6512C19.4637 26.6041 19.3686 26.577 19.271 26.5721Z" fill="#FFC619"/>
<path d="M35.199 35.6777C35.2545 33.4358 33.4061 33.0885 32.1375 32.3036C30.869 31.5187 29.3695 29.8627 27.8093 28.7466C26.2492 27.6304 24.9001 27.6553 22.2664 28.4728L25.2939 34.317C26.9986 35.1836 27.3751 36.1373 28.2923 37.4215C29.2095 38.7056 30.4356 39.2001 31.6596 38.968C32.3062 40.0247 32.4315 40.2734 33.3646 39.9384C34.2976 39.6035 35.8315 38.8931 36.2429 37.6672C36.6543 36.4413 36.0517 36.2355 35.199 35.6777Z" fill="#66BCFF"/>
<path d="M25.1588 30.8714C24.8825 31.7633 24.7045 32.6826 24.6274 33.6129" stroke="black" stroke-width="2" stroke-miterlimit="10" stroke-linecap="round"/>
<path d="M26.4162 41.6614C24.5325 43.3692 22.9328 42.8966 22.1853 42.8159C21.4378 42.7351 21.5192 42.1952 21.4556 41.7387C21.3919 41.2823 21.3483 40.5974 21.3483 40.5974C19.4591 40.4786 19.2269 39.1924 19.1819 38.0509C19.1369 36.9094 18.8458 36.7442 18.6981 35.9352C16.4194 35.533 14.2641 34.6117 12.3989 33.2422C10.5337 31.8729 9.0091 30.0922 7.94282 28.0387L9.91036 26.6005L14.3195 29.4515C17.2843 28.3424 18.9224 27.777 20.5203 27.6684C22.1183 27.5598 23.6976 28.1569 24.2233 30.3763C24.7489 32.5957 24.8133 33.2805 25.2939 34.3376C25.4193 34.6071 25.6279 34.9801 25.8367 35.3738C26.4215 36.5552 27.0285 38.2139 25.8508 40.0233C25.9968 40.5831 26.1859 41.1309 26.4162 41.6614Z" fill="#8CD9FF"/>
<path d="M11.1726 32.2214C11.1059 30.7479 11.6632 29.7083 12.6798 29.5392L10.1005 27.7619L8.23488 28.5771C8.71631 29.9041 9.94535 31.3533 11.1726 32.2214Z" fill="black"/>
<path d="M15.3823 23.9892C14.7788 23.4721 14.3222 23.515 13.5967 23.8286C12.8266 23.1252 11.8299 23.0244 10.7932 23.3804C9.7564 23.7364 8.15958 24.2187 7.22629 24.4706C7.17425 24.4902 7.11759 24.4944 7.06318 24.4827C7.00876 24.4708 6.95886 24.4438 6.9193 24.4047C6.87995 24.3653 6.85261 24.3156 6.84061 24.2613C6.82841 24.2069 6.83239 24.1502 6.85153 24.0981L7.52895 21.6052C5.31302 23.2725 4.5973 26.8241 5.30888 28.7523C6.02046 30.6805 9.09238 30.6505 10.0663 30.1078C11.0402 29.5652 11.3718 29.3981 12.4933 29.6023C13.6148 29.8065 14.487 29.9491 15.9574 28.8238L16.8283 28.5306C17.1546 26.6407 16.8599 25.2716 15.3823 23.9892Z" fill="#3442D9"/>
<path d="M15.3825 23.9891C14.779 23.472 14.3225 23.5149 13.5969 23.8285C12.8268 23.1251 11.8302 23.0243 10.7934 23.3803C9.75663 23.7363 8.15982 24.2186 7.22653 24.4705" stroke="black" stroke-miterlimit="10" stroke-linecap="round"/>
<path d="M13.5967 23.8286C14.2181 24.3068 14.7362 24.906 15.12 25.5896C15.5038 26.2734 15.7452 27.0278 15.8297 27.8072" stroke="black" stroke-miterlimit="10" stroke-linecap="round"/>
<path d="M19.8837 23.1866C19.8929 23.158 19.896 23.1276 19.8923 23.0976C19.8887 23.0677 19.8787 23.0389 19.8626 23.0134C19.8468 22.9877 19.8255 22.9657 19.8004 22.9492C19.7752 22.9327 19.7467 22.9218 19.7168 22.9173L19.5093 22.9179C19.4515 22.9054 19.3911 22.916 19.341 22.9471C19.2907 22.9782 19.2545 23.0275 19.2399 23.0848L19.0552 23.7703C19.0457 23.8007 19.0433 23.8326 19.0482 23.864C19.0531 23.8953 19.065 23.9249 19.0829 23.951C19.1011 23.9769 19.125 23.9984 19.1527 24.0139C19.1803 24.0292 19.2113 24.038 19.2428 24.0396L19.4504 24.039C19.505 24.0459 19.5602 24.0326 19.606 24.002C19.6515 23.9713 19.6846 23.9253 19.699 23.8722L19.8837 23.1866Z" fill="#29CC7A"/>
<path d="M16.551 19.2115C16.7105 18.8861 16.9465 18.6044 17.2385 18.3903C17.5307 18.1761 17.8705 18.0359 18.2286 17.9817C18.2701 17.9816 18.2908 17.94 18.2699 17.9194C17.9971 16.9238 18.1199 16.363 18.4706 15.6355C18.4741 15.6302 18.4764 15.6242 18.4772 15.6179C18.478 15.6116 18.4773 15.6052 18.4755 15.5993C18.4734 15.5932 18.47 15.5878 18.4654 15.5833C18.4611 15.5788 18.4557 15.5754 18.4496 15.5733C17.2858 15.0786 16.8474 14.2497 16.7209 13.6274C16.7 13.5859 16.6377 13.5654 16.6171 13.6069C16.1013 14.6463 15.3957 14.69 14.7935 14.6088C14.752 14.6089 14.7314 14.6505 14.7522 14.6712C15.3577 15.8317 14.9243 16.6633 14.3241 17.2463C14.321 17.2545 14.3194 17.2632 14.3198 17.272C14.3203 17.2807 14.3226 17.2893 14.3265 17.2971C14.3305 17.305 14.3359 17.3119 14.3428 17.3174C14.3494 17.3229 14.3573 17.327 14.3659 17.3292C15.5289 17.5333 16.1539 18.2994 16.4472 19.191C16.4681 19.2325 16.5304 19.253 16.551 19.2115Z" fill="#FFC619"/>
<path d="M19.2715 26.5721L18.0879 26.4097" stroke="black" stroke-miterlimit="10" stroke-linecap="round"/>
<path d="M21.4297 26.5034L22.0942 26.6052" stroke="black" stroke-miterlimit="10" stroke-linecap="round"/>
<path d="M16.6792 13.5862C17.1946 12.4223 17.1507 11.6129 17.004 11.1567" stroke="black" stroke-miterlimit="10" stroke-linecap="round"/>
<path d="M18.3453 15.6151C18.6693 15.6638 19.0001 15.6421 19.3149 15.5516C19.6299 15.4611 19.9217 15.3039 20.1703 15.0907" stroke="black" stroke-miterlimit="10" stroke-linecap="round"/>
<path d="M16.5505 19.2117C16.5527 19.3661 16.5322 19.5202 16.4897 19.6686" stroke="black" stroke-miterlimit="10" stroke-linecap="round"/>
<path d="M14.4274 17.2671C13.661 17.8091 12.4984 17.7296 11.6881 17.483" stroke="black" stroke-miterlimit="10" stroke-linecap="round"/>
<path d="M14.793 14.6089C14.5006 14.0078 13.9588 13.3245 13.46 13.0977" stroke="black" stroke-miterlimit="10" stroke-linecap="round"/>
<path d="M18.2695 17.9194C18.5377 18.0615 18.8245 18.1655 19.1215 18.2282" stroke="black" stroke-miterlimit="10" stroke-linecap="round"/>
<path d="M16.0424 15.7052C16.3994 17.0741 16.8558 16.9897 17.0621 16.5739C17.2684 16.1581 17.4121 15.6388 17.7444 15.6793C18.0766 15.7198 17.9953 16.3012 17.6035 17.1327C17.2116 17.9642 16.5687 18.1529 15.9646 17.4283C15.3604 16.7036 15.3375 15.9979 15.3153 15.4998C15.293 15.0017 15.8116 14.8756 16.0424 15.7052Z" fill="#C40655"/>
<path d="M15.225 20.0252C15.4828 22.8889 14.0339 24.2632 13.5859 27.1083" stroke="white" stroke-miterlimit="10" stroke-linecap="round"/>
<path d="M18.5316 35.9564C18.1543 34.7329 17.9814 32.4917 18.9925 30.5167" stroke="black" stroke-width="2" stroke-miterlimit="10" stroke-linecap="round"/>
<path d="M8.03501 24.24L6.50053 24.7428" stroke="black" stroke-miterlimit="10" stroke-linecap="round"/>
<path d="M23.29 24.0068L24.3288 24.2943" stroke="black" stroke-miterlimit="10" stroke-linecap="round"/>
</g>
<defs>
<clipPath id="clip0_321_6762">
<rect x="0.422852" y="0.723633" width="29.1892" height="29.1892" rx="14.5946" transform="rotate(-0.173721 0.422852 0.723633)" fill="white"/>
</clipPath>
</defs>
</svg>
