<svg width="31" height="30" viewBox="0 0 31 30" fill="none" xmlns="http://www.w3.org/2000/svg">
<g clip-path="url(#clip0_321_6760)">
<rect x="0.743164" y="0.135742" width="29.1892" height="29.1892" rx="14.5946" transform="rotate(-0.173721 0.743164 0.135742)" fill="#3442D9"/>
<path d="M7.25355 11.587C6.39396 8.76671 5.93323 7.41891 7.4667 6.58399C9.00018 5.74906 13.6721 6.29533 15.8531 6.80764C18.0342 7.31995 18.3472 7.85868 16.9214 10.001L7.25355 11.587Z" fill="#FFF4B3"/>
<path d="M6.33436 36.9752C5.97682 28.5905 6.16325 21.6156 6.42182 17.8994C5.02835 16.9903 4.38275 16.2865 4.11172 15.893C4.05545 15.8172 4.02652 15.7245 4.03018 15.63C4.03363 15.5358 4.06906 15.4454 4.13091 15.374C6.32274 12.6067 8.2043 10.1932 10.1728 9.06633C12.1413 7.93949 14.8388 7.64072 19.1483 11.9036C19.1896 11.9582 19.2102 12.0256 19.2066 12.0939C19.2031 12.1624 19.1755 12.2273 19.1287 12.2772C18.7885 12.617 18.4291 12.9369 18.0523 13.2353C18.9288 14.7894 20.2021 17.1519 20.2021 17.1519L21.1984 17.1488C21.8369 17.1469 22.4502 17.3987 22.903 17.849C23.3561 18.2991 23.6116 18.9106 23.6135 19.5493C23.6401 21.4796 23.1905 23.8057 22.307 26.7974C26.3021 30.0234 25.3474 36.8968 25.3474 36.8968L6.33436 36.9752Z" fill="#29CC7A"/>
<path d="M22.3072 26.7975C22.4304 26.3613 22.5537 25.9665 22.6563 25.5511L19.5273 27.3041C19.5273 27.3041 14.5563 23.9773 6.2266 21.9269C6.093 25.7881 6.08811 31.0188 6.33449 36.9753L25.3476 36.9177C25.3476 36.9177 26.3023 30.0235 22.3072 26.7975Z" fill="#8CD9FF"/>
<path d="M23.0977 27.5633C22.8549 27.2874 22.5903 27.0314 22.3067 26.7977C22.4299 26.3615 22.5532 25.9667 22.6557 25.5513L19.5268 27.3043C19.5268 27.3043 14.5558 23.9775 6.22608 21.9271C6.20678 22.4046 6.18759 22.9236 6.18916 23.4425C12.5695 26.0593 16.008 30.5738 16.4217 36.9449L21.1335 36.9306C21.9527 33.2749 22.6072 30.0764 23.0977 27.5633Z" fill="#BAE8FF"/>
<path d="M8.73035 19.4908L8.81337 19.4906C8.85476 19.4489 8.89621 19.428 8.91678 19.3657L10.7049 13.5276C10.7169 13.5031 10.7237 13.4763 10.7242 13.4489C10.7247 13.4217 10.7195 13.3945 10.7084 13.3696C10.6975 13.3445 10.6811 13.3222 10.6607 13.3042C10.6401 13.2862 10.6159 13.273 10.5896 13.2654C10.5634 13.2578 10.5358 13.256 10.5088 13.26C10.4818 13.2642 10.4561 13.2743 10.4333 13.2895C10.4107 13.3047 10.3917 13.3247 10.3775 13.3482C10.3634 13.3715 10.3546 13.3977 10.3517 13.4249L8.6253 19.076C7.87107 18.757 7.14735 18.37 6.46309 17.9202L6.42158 17.9203C6.42195 18.0448 6.40164 18.1902 6.40201 18.3147C7.12055 18.774 7.87896 19.1677 8.66808 19.491L8.73035 19.4908Z" fill="black"/>
<path d="M16.424 10.0854L8.9948 10.6476C17.3022 12.1999 17.6558 12.4272 16.424 10.0854Z" fill="black"/>
<path d="M14.5826 15.49C14.8691 15.3733 14.9191 14.831 14.6941 14.2789C14.4691 13.7271 14.0545 13.3742 13.7678 13.4909C13.4811 13.6078 13.4313 14.1499 13.6563 14.702C13.8811 15.2541 14.2959 15.6069 14.5826 15.49Z" fill="black"/>
<path d="M16.7266 16.6311C17.0945 15.9309 17.0474 15.1817 16.6212 14.9578C16.195 14.7337 15.5513 15.1199 15.1831 15.8199C14.8151 16.5201 14.8625 17.2692 15.2884 17.4934C15.7146 17.7173 16.3586 17.3313 16.7266 16.6311Z" stroke="white" stroke-miterlimit="10"/>
<path d="M19.7821 16.6262C20.1501 15.9262 20.103 15.177 19.6768 14.9529C19.2506 14.7289 18.6068 15.1149 18.2388 15.8151C17.8709 16.5153 17.918 17.2645 18.3442 17.4884C18.7704 17.7123 19.4141 17.3264 19.7821 16.6262Z" stroke="white" stroke-miterlimit="10"/>
<path d="M17.6789 15.3801C17.8701 15.3023 17.8497 14.809 17.6333 14.2781C17.417 13.7473 17.0867 13.3801 16.8956 13.4581C16.7046 13.5359 16.725 14.0292 16.9413 14.5602C17.1577 15.0909 17.488 15.4581 17.6789 15.3801Z" fill="black"/>
<path d="M19.6732 20.807C18.0706 20.817 16.5138 20.2717 15.268 19.2636C13.9779 18.2089 14.4964 18.0828 15.3059 18.0596C16.1153 18.0363 19.9973 18.1699 21.1186 18.3325C22.24 18.4952 22.4543 20.7155 19.6732 20.807Z" fill="#912869"/>
<path d="M19.6732 20.807C18.0706 20.817 16.5138 20.2717 15.268 19.2636C13.9779 18.2089 14.4964 18.0828 15.3059 18.0596C16.1153 18.0363 19.9973 18.1699 21.1186 18.3325C22.24 18.4952 22.4543 20.7155 19.6732 20.807Z" fill="#611B46"/>
<path d="M19.5975 23.1319L19.5122 22.3641C20.0984 22.3156 20.6694 22.1516 21.192 21.8816" stroke="black" stroke-linecap="round" stroke-linejoin="round"/>
<path d="M20.4415 20.7007C19.3174 19.6248 17.7997 18.8199 14.9981 19.0152C17.4126 21.2288 19.9231 20.8476 20.4415 20.7007Z" fill="#EB459F"/>
<path d="M16.8564 15.896L18.1226 15.8922" stroke="white" stroke-miterlimit="10"/>
<path d="M14.9475 16.151L9.5857 13.9878C9.47327 13.9446 9.352 13.9294 9.23249 13.943C9.11276 13.9569 8.99831 13.9994 8.89847 14.0669C8.79883 14.1345 8.71691 14.2252 8.65995 14.3312C8.60277 14.4373 8.5722 14.5555 8.5707 14.6759C8.56864 14.8176 8.60933 14.9566 8.68752 15.0749C8.76551 15.193 8.87746 15.285 9.0086 15.3388L9.36197 15.5037" stroke="white" stroke-miterlimit="10" stroke-linecap="round"/>
<path d="M13.8179 13.4351C14.2391 13.4446 14.6594 13.3873 15.0628 13.2653" stroke="black" stroke-miterlimit="10" stroke-linecap="round"/>
<path d="M16.9321 13.4258C17.1976 13.4319 17.4609 13.3742 17.6996 13.2574" stroke="black" stroke-miterlimit="10" stroke-linecap="round"/>
<path d="M7.95738 10.8584C15.3672 10.7321 17.8762 9.89425 19.9911 9.11984C22.1059 8.34542 21.8965 7.74411 20.2777 7.81129C18.6589 7.87847 13.1233 10.0124 7.95738 10.8584Z" fill="#FFF4B3"/>
<path d="M7.95684 10.8581L10.4885 10.6429L16.5666 9.42056L15.0468 7.93067L7.80273 7.95264L7.95684 10.8581Z" fill="#FFF4B3"/>
<path d="M20.2472 18.4805L18.7939 18.4019C18.9626 19.2731 19.3792 19.7285 19.7316 19.5822C20.084 19.4358 20.2062 18.6674 20.2472 18.4805Z" fill="white"/>
<path d="M15.7637 18.3071C15.9535 19.3029 16.3287 19.8207 16.6811 19.6535C17.0334 19.4864 17.1139 18.6559 17.1752 18.3236L15.7637 18.3071Z" fill="white"/>
<path d="M17.4153 8.44271C14.2187 9.30952 10.9781 10.0053 7.7074 10.5271" stroke="#FFC619" stroke-width="2" stroke-miterlimit="10" stroke-linecap="round"/>
</g>
<defs>
<clipPath id="clip0_321_6760">
<rect x="0.743164" y="0.135742" width="29.1892" height="29.1892" rx="14.5946" transform="rotate(-0.173721 0.743164 0.135742)" fill="white"/>
</clipPath>
</defs>
</svg>
