<svg width="30" height="30" viewBox="0 0 30 30" fill="none" xmlns="http://www.w3.org/2000/svg">
<g clip-path="url(#clip0_321_6761)">
<rect y="0.0883789" width="29.1892" height="29.1892" rx="14.5946" transform="rotate(-0.173721 0 0.0883789)" fill="#7196FF"/>
<path d="M10.9761 25.0054L10.3369 25.6431L15.0071 30.2459L15.6465 29.6081L10.9761 25.0054Z" fill="#2E3338"/>
<path d="M13.8874 25.0034L13.248 25.6411L17.9182 30.2438L18.5576 29.6061L13.8874 25.0034Z" fill="#2E3338"/>
<path d="M19.1305 24.189C20.3326 22.9842 21.0741 21.4019 21.2273 19.714C21.3805 18.0261 20.9359 16.338 19.97 14.94L16.9402 10.5506L13.3718 10.5615L13.3888 16.1719C13.3903 16.6593 13.1963 17.1272 12.8499 17.4729C12.5033 17.8185 12.0325 18.0135 11.541 18.015L5.80383 18.0324L5.80769 19.3031C5.81335 21.1714 6.56595 22.9611 7.90042 24.28C9.2349 25.5989 11.0425 26.3392 12.9267 26.3386L13.9716 26.3354C15.9075 26.3134 17.7584 25.5434 19.1305 24.189Z" fill="#FFD836"/>
<path d="M16.9338 8.49797C17.8802 8.4951 18.789 8.86513 19.4603 9.52666C20.1314 10.1882 20.5101 11.087 20.513 12.0254L20.5158 12.9442L13.3787 12.9659L13.3759 12.0275C13.3783 11.0925 13.7539 10.1964 14.4206 9.53502C15.0872 8.87365 15.9908 8.50081 16.9338 8.49797Z" fill="#FFD836"/>
<path d="M21.5562 11.6312C21.7285 11.7991 21.8647 11.9998 21.9569 12.2212C22.049 12.4427 22.0952 12.6803 22.0924 12.9198L18.6817 12.9301C18.5549 12.928 18.4314 12.8892 18.3267 12.8185C18.2218 12.7477 18.1401 12.6482 18.0916 12.532C18.0431 12.4159 18.0298 12.2882 18.0535 12.1647C18.0772 12.0412 18.1367 11.9272 18.2248 11.8368L18.9129 11.1505L18.9099 10.1731C18.9094 10.0468 18.9583 9.92519 19.0461 9.83381C19.1341 9.74244 19.2543 9.68836 19.3816 9.68293C19.5116 9.68951 19.636 9.73707 19.7369 9.81868L21.5562 11.6312Z" fill="#FF9A15"/>
<path d="M16.9335 8.49785L15.8885 8.50102C14.6025 8.50332 13.3677 8.00108 12.4539 7.10393L11.9395 6.53857L11.9405 6.89045C11.944 8.03106 12.4043 9.12357 13.2202 9.92764C14.036 10.7317 15.1406 11.1815 16.291 11.178L16.9219 11.1761L16.9335 8.49785Z" fill="#FFD836"/>
<path d="M11.8721 10.1162L14.7308 10.1075L14.7394 12.9421L11.8721 10.1162Z" fill="#FFD836"/>
<path d="M7.46823 20.764C8.00479 21.8916 8.95883 22.7708 10.1322 23.219C11.3056 23.6671 12.608 23.65 13.7689 23.1708C14.9297 22.6917 15.8599 21.7876 16.3661 20.6462C16.8722 19.5048 16.9154 18.214 16.4867 17.042L7.46823 20.764Z" fill="#FF9A15"/>
<path d="M2.63965 14.9141L4.87454 17.214C5.16786 17.4994 5.40136 17.8396 5.56151 18.2149C5.72179 18.5902 5.80548 18.9932 5.80779 19.4006L7.40475 19.3958L7.40138 18.2817C7.3976 17.6589 7.18578 17.0551 6.799 16.5646C6.41223 16.0741 5.87239 15.7246 5.26385 15.5708L2.63965 14.9141Z" fill="#FFD836"/>
<path d="M6.85013 18.733L6.67323 18.9094C6.60066 18.9789 6.50905 19.0256 6.40982 19.0437C6.3106 19.0617 6.20819 19.0505 6.11551 19.0111C6.0227 18.9716 5.9438 18.906 5.88853 18.8223C5.83325 18.7387 5.80403 18.6407 5.80467 18.5406L5.78908 13.3994L6.83709 14.4324C7.40721 15.0045 7.72797 15.7756 7.73041 16.5799C7.73285 17.3843 7.41677 18.1574 6.85013 18.733Z" fill="#FFD836"/>
<path d="M17.1584 11.1752C17.4088 11.1744 17.6112 10.9725 17.6105 10.7242C17.6097 10.4759 17.4061 10.2752 17.1556 10.276C16.9051 10.2767 16.7028 10.4786 16.7035 10.727C16.7043 10.9753 16.9079 11.176 17.1584 11.1752Z" fill="#202225"/>
</g>
<defs>
<clipPath id="clip0_321_6761">
<rect y="0.0883789" width="29.1892" height="29.1892" rx="14.5946" transform="rotate(-0.173721 0 0.0883789)" fill="white"/>
</clipPath>
</defs>
</svg>
