<svg width="30" height="30" viewBox="0 0 30 30" fill="none" xmlns="http://www.w3.org/2000/svg">
<g clip-path="url(#clip0_321_6759)">
<rect x="0.310547" y="0.0888672" width="29.1892" height="29.1892" rx="14.5946" transform="rotate(-0.173721 0.310547 0.0888672)" fill="#FFE75C"/>
<path d="M22.8046 29.6928C22.9098 30.1143 22.9178 30.5543 22.8278 30.9793C22.7379 31.4044 22.5523 31.8033 22.2854 32.1462C22.0185 32.4889 21.677 32.7666 21.287 32.9579C20.8969 33.1492 20.4686 33.2493 20.0339 33.2507L14.0975 33.2687L11.3209 34.8338L11.3206 34.7508C10.0545 34.7546 9.32692 34.3417 9.87325 29.6905C9.62021 28.3836 8.44223 23.2395 7.78713 19.4015C7.19531 15.8953 8.49907 14.6045 12.1046 12.5594C13.6267 7.98824 17.6126 8.24599 18.3889 10.9835C19.1652 13.7211 21.7328 25.3579 22.8046 29.6928Z" fill="#66BCFF"/>
<path d="M22.8044 29.6926C22.258 27.4525 21.2906 23.3041 20.3863 19.4253L15.7357 19.0865L12.1527 21.6297L10.0854 24.4174L9.0312 25.8528C9.41023 27.6368 9.72578 29.0888 9.8522 29.7111C9.30587 34.3623 10.0336 34.7753 11.2998 34.7714L14.9692 33.2035L23.4776 32.5758C23.2672 31.6424 23.0357 30.6675 22.8044 29.6926Z" fill="#EB459F"/>
<path d="M13.2846 27.3846C13.5417 25.8354 13.402 24.5215 12.9721 24.4501C12.5424 24.3788 11.9856 25.5769 11.7283 27.1263C11.4711 28.6756 11.611 29.9893 12.0407 30.0606C12.4704 30.132 13.0274 28.9338 13.2846 27.3846Z" fill="black"/>
<path d="M10.5599 23.5445C10.7663 23.1702 10.9937 22.7959 11.221 22.4631C13.5563 19.0726 15.7535 18.1527 17.8707 18.1463L20.5068 18.1383C20.5462 18.1392 20.5847 18.1494 20.6194 18.168C20.6539 18.1866 20.6837 18.2133 20.706 18.2456C20.7283 18.2779 20.7427 18.315 20.748 18.354C20.7533 18.393 20.7493 18.4327 20.7363 18.4697L20.3862 19.4256C16.3386 19.4378 14.906 19.3176 11.5541 22.8565L10.0853 24.4177L10.5599 23.5445Z" fill="#D11583"/>
<path d="M11.5545 22.981C10.1646 23.2343 9.06665 23.9641 8.44786 25.2529C8.27209 25.6104 8.01773 25.9234 7.70339 26.1684L3.97543 28.8989C3.55643 29.1982 3.26511 29.6439 3.15891 30.1478C3.05291 30.6517 3.13982 31.177 3.40249 31.6198C3.58568 31.9306 3.84737 32.1876 4.16113 32.3651C4.4751 32.5427 4.83011 32.6346 5.19065 32.6314L6.7474 32.6267C9.97996 30.8111 11.4707 29.5819 12.2366 28.8738C13.0024 28.1658 13.8496 26.897 13.6999 25.4445C13.5502 23.992 13.1311 22.6856 11.5545 22.981Z" fill="white"/>
<path d="M12.6853 12.2459C12.1846 11.4172 11.517 10.3191 11.2664 9.80094C11.0157 9.28278 10.4142 9.40914 11.2722 11.7313C9.19417 10.9488 8.75916 11.2408 8.65626 11.5317C8.55336 11.8226 9.01045 11.9665 9.88374 12.462C10.757 12.9575 11.6929 13.5566 11.6929 13.5566L12.6853 12.2459Z" fill="#66BCFF"/>
<path d="M14.844 12.302C15.1956 11.865 15.3189 11.3873 15.1108 11.2218C14.9027 11.0564 14.6745 11.1401 14.3644 11.5562C14.2306 11.7254 14.0856 11.8854 13.9299 12.0349C13.5781 12.3681 13.6619 12.6169 13.8283 12.7617C13.9948 12.9065 14.4925 12.739 14.844 12.302Z" fill="black"/>
<path d="M18.3682 11.0042C18.3682 11.0042 15.8947 9.89085 14.8341 9.20909C13.7734 8.52733 13.2306 7.51189 13.7072 7.2406C14.1838 6.96932 15.0993 7.61 15.7452 8.43832C15.72 6.96466 15.9682 6.65258 16.3625 6.63062C16.7568 6.60867 16.7999 7.18971 16.8231 8.01991C16.8464 8.85012 16.9929 9.18178 17.6173 9.74033C17.9911 10.0748 18.2532 10.5159 18.3682 11.0042Z" fill="#3442D9"/>
<path d="M9.31866 17.9228C8.73747 17.9245 8.2378 17.4279 8.6918 16.5547C9.14581 15.6815 10.6374 14.8052 11.3629 14.4709C12.0884 14.1366 12.4217 14.4677 12.4432 14.7167C12.4647 14.9657 12.3619 15.3397 11.845 16.0055C11.3281 16.6713 10.3772 17.9195 9.31866 17.9228Z" fill="white"/>
<path d="M9.7747 17.8592L9.42223 17.9225L8.91891 16.222L9.20856 15.9098L9.7747 17.8592Z" fill="#8CD9FF"/>
<path d="M11.0595 16.9419L10.77 17.2334L10.1823 15.1387L10.493 14.9302L11.0595 16.9419Z" fill="#8CD9FF"/>
<path d="M12.217 15.4857L11.948 15.8602L11.5285 14.4085L11.8812 14.3451L12.217 15.4857Z" fill="#8CD9FF"/>
<path d="M11.7568 14.1587C12.1416 14.341 12.5373 14.4994 12.9416 14.6325" stroke="black" stroke-linecap="round" stroke-linejoin="round"/>
<path d="M21.0387 22.1634C20.6404 21.8495 20.1531 21.6694 19.6466 21.6487C18.5672 21.652 17.9685 22.7124 17.764 23.7301C17.7311 23.8934 17.6433 24.0402 17.5152 24.1464C17.387 24.2527 17.2263 24.3115 17.0601 24.3134L16.9148 24.3139C16.8211 24.2969 16.7317 24.2613 16.6523 24.2088C16.5726 24.1565 16.5046 24.0887 16.452 24.0093C16.3995 23.93 16.3633 23.8408 16.3462 23.7473C16.3289 23.6535 16.3309 23.5574 16.3518 23.4645C16.7402 21.4915 18.0232 20.2214 19.6423 20.2165C19.91 20.219 20.1691 20.3125 20.3772 20.4816C20.5851 20.6506 20.7294 20.8853 20.7867 21.1471L21.0387 22.1634Z" fill="white"/>
<path d="M22.8046 29.6927C22.8511 29.8781 22.8591 30.0711 22.8286 30.2597C22.798 30.4484 22.7296 30.629 22.6272 30.7904C22.5247 30.9518 22.3906 31.0906 22.233 31.1986C22.0753 31.3068 21.8973 31.3817 21.7099 31.4188L21.1912 31.4619C20.008 31.4655 18.781 30.7635 17.8225 29.5417C17.7652 29.4655 17.7232 29.3789 17.6993 29.2866C17.6753 29.1941 17.6699 29.098 17.6831 29.0035C17.6963 28.909 17.728 28.818 17.7763 28.7359C17.8246 28.6535 17.8887 28.5817 17.9649 28.5242C18.0399 28.464 18.1265 28.4197 18.2192 28.3941C18.3119 28.3687 18.4091 28.3624 18.5044 28.3756C18.5997 28.389 18.6911 28.4215 18.7735 28.4717C18.8556 28.5217 18.9268 28.5879 18.9823 28.6664C19.649 29.5154 20.4603 30.0319 21.1868 30.0297C21.9133 30.0275 22.3479 29.611 22.6576 29.0704C22.6999 29.2986 22.7625 29.506 22.8046 29.6927Z" fill="#2331B5"/>
<path d="M21.3956 23.7603C21.2491 23.7616 21.1066 23.8083 20.9878 23.8942C20.8691 23.9801 20.78 24.1009 20.7329 24.2397L19.8682 26.5879C19.7927 26.8083 19.7951 27.0481 19.875 27.267C19.9552 27.486 20.1079 27.6707 20.3077 27.7904C20.3982 27.8456 20.5 27.8799 20.6053 27.8904C20.7108 27.9011 20.8172 27.8877 20.9169 27.8515C21.0165 27.8153 21.1066 27.7571 21.1807 27.6813C21.2547 27.6055 21.3107 27.514 21.3444 27.4137L21.9005 25.8967C21.7531 25.2122 21.5847 24.507 21.3956 23.7603Z" fill="#5865F2"/>
<path d="M20.3077 27.7908C20.1078 27.671 19.9551 27.4864 19.875 27.2674C19.795 27.0485 19.7926 26.8087 19.8681 26.5883L20.1153 25.944C20.1566 25.8316 20.2219 25.7295 20.3063 25.6446C20.391 25.5598 20.4929 25.4943 20.6051 25.4525C20.7174 25.4108 20.8374 25.3939 20.957 25.4029C21.0763 25.4118 21.1925 25.4466 21.2971 25.5046C21.4682 25.6039 21.5994 25.7594 21.6681 25.9449C21.7367 26.1303 21.7388 26.3337 21.6738 26.5205L21.3444 27.4141C21.3106 27.5144 21.2547 27.6059 21.1806 27.6817C21.1065 27.7575 21.0164 27.8157 20.9169 27.8519C20.8171 27.8881 20.7107 27.9015 20.6052 27.8908C20.4999 27.8803 20.3981 27.8462 20.3077 27.7908Z" fill="#FFE75C"/>
</g>
<defs>
<clipPath id="clip0_321_6759">
<rect x="0.310547" y="0.0888672" width="29.1892" height="29.1892" rx="14.5946" transform="rotate(-0.173721 0.310547 0.0888672)" fill="white"/>
</clipPath>
</defs>
</svg>
