<svg width="30" height="30" viewBox="0 0 30 30" fill="none" xmlns="http://www.w3.org/2000/svg">
<g clip-path="url(#clip0_321_6763)">
<rect x="0.504883" y="0.787109" width="29.1892" height="29.1892" rx="14.5946" transform="rotate(-0.173721 0.504883 0.787109)" fill="url(#paint0_linear_321_6763)"/>
<path d="M27.019 12.372C28.5298 6.5544 29.2611 5.5212 32.7971 13.0094L27.019 12.372Z" fill="#D4E1FF"/>
<path d="M12.5869 24.8352L12.4483 24.9554C14.558 26.933 17.7701 32.0211 22.6317 31.7493C22.6317 31.7493 26.5837 38.9188 30.8097 38.1129C35.0356 37.3061 38.1531 31.3446 38.1531 31.3446C39.2919 29.2869 40.0959 27.061 40.535 24.7505C40.4739 24.2155 40.2742 23.799 39.8965 23.5422C36.873 21.5481 14.7854 23.2222 12.5869 24.8352Z" fill="#1C1B29"/>
<path d="M18.9534 10.0954L23.3831 11.2721C24.6984 10.705 26.1171 10.4173 27.5495 10.4269C34.2978 10.4065 37.9072 15.8711 37.9276 22.5961C37.948 29.322 34.3718 34.8084 27.6234 34.8289C20.8743 34.8493 17.285 29.3846 17.2646 22.6588C17.2576 21.6684 17.3341 20.6792 17.4935 19.7017C17.9429 17.1209 17.8136 14.4711 17.1124 11.946C17.0442 11.6907 17.0441 11.422 17.1123 11.1667C17.1804 10.9115 17.3143 10.6785 17.5007 10.4912C17.687 10.3039 17.9193 10.1688 18.1742 10.0993C18.4291 10.0298 18.6978 10.0285 18.9534 10.0954Z" fill="#B3CAFF"/>
<path d="M37.6988 25.5135C34.4279 26.9714 31.049 25.4533 27.7881 23.5989C24.2286 21.5662 21.9299 16.3949 20.9526 14.7513C19.9753 13.107 18.5842 12.7946 17.6247 10.3972C17.398 10.5776 17.2289 10.8201 17.1381 11.0952C17.0473 11.3702 17.0388 11.6658 17.1135 11.9456C17.814 14.4709 17.9439 17.1205 17.4938 19.7022C17.3345 20.6794 17.2579 21.6683 17.2649 22.6584C17.2853 29.3843 20.8946 34.8489 27.6237 34.8285C33.3604 34.8111 36.8021 30.8326 37.6988 25.5127L37.6988 25.5135Z" fill="#8DAEF7"/>
<path d="M37.0972 23.5106C37.1131 28.7482 34.0097 33.0037 30.1783 33.0153C26.3477 33.0269 23.2379 28.7903 23.222 23.5526C23.1958 14.903 28.5963 21.9694 32.4278 21.9577C36.2584 21.9461 37.1736 16.0909 37.0972 23.5106Z" fill="#FCFDFF"/>
<path d="M30.2793 28.5817C30.6512 28.5492 30.9084 28.0277 30.8559 27.4163C30.8026 26.805 30.4581 26.3359 30.0869 26.3676C29.7158 26.4009 29.4578 26.9224 29.5111 27.5329C29.5643 28.1443 29.9081 28.6141 30.2793 28.5817ZM34.8364 27.5545C34.9455 26.9507 34.7365 26.4073 34.3691 26.3418C34.0024 26.2754 33.6165 26.7113 33.5074 27.3151C33.3991 27.9181 33.6081 28.4615 33.9747 28.5279C34.3414 28.5943 34.7274 28.1584 34.8364 27.5545Z" fill="#1C1B29"/>
<path d="M50.3557 88.5832C47.5386 89.1872 39.0784 81.1779 39.0784 81.1779C41.4228 88.4713 41.8264 90.6525 42.2291 92.5357C42.6317 94.4197 42.3942 94.7973 42.2399 96.1269C42.0849 97.4564 42.0847 97.4171 42.8837 99.0813C43.6827 100.745 44.2029 101.914 44.3638 102.767C44.4248 103.262 44.4062 103.765 44.3089 104.254L8.83779 104.362C8.83779 104.362 8.6562 103.569 9.40407 101.364C10.1519 99.1604 11.8733 97.3303 12.8213 95.938C13.7701 94.5466 13.7111 94.6858 13.4514 94.1112C12.2519 91.2975 14.1792 91.9072 14.9804 87.6787C15.7808 83.4503 15.9784 63.2928 17.7591 55.0548C19.5405 46.816 22.2941 44.863 22.4719 38.0578C19.1075 34.934 10.7659 26.8046 12.4478 24.9545C14.3584 26.7343 20.0777 27.5904 24.7423 27.5369C25.1514 27.5298 25.5524 27.6519 25.8882 27.8859C26.2239 28.1199 26.4772 28.4539 26.6121 28.8403C27.4133 31.2381 29.4326 35.9739 32.5871 35.3488C35.7417 34.7245 38.0662 29.0828 38.7157 27.0373C38.8526 26.5908 39.1385 26.2048 39.5256 25.9436C39.948 25.6279 40.2931 25.2201 40.5345 24.7513C40.9835 28.6577 34.5237 39.0329 34.5237 39.0329C34.5237 39.0329 36.1742 53.0744 39.4041 57.6868C42.6332 62.3 51.6653 62.2726 51.8964 66.6763C52.1283 71.0792 53.1527 87.9793 50.3557 88.5832Z" fill="#BD4070"/>
<path d="M22.9019 29.2082C20.5591 29.0763 17.4023 28.6889 12.333 26.1851C13.1552 29.1381 19.626 35.388 22.4724 38.0577C22.4359 40.1684 22.0602 42.2596 21.3597 44.251C23.9309 47.8737 27.0207 45.5035 27.6076 55.6991C27.8587 60.0432 31.072 65.8064 34.4257 72.0456C37.7795 78.2848 38.2011 66.7965 38.0449 61.143C37.956 58.068 37.3298 54.2609 36.663 50.6324C35.2377 45.1411 34.5241 39.0328 34.5241 39.0328C34.5241 39.0328 39.0479 31.758 40.2641 27.1121C39.9545 27.3059 39.7127 27.5911 39.5722 27.9274C38.3492 30.7072 36.9793 33.42 35.4681 36.0543C33.9076 38.698 30.9938 40.0159 27.6231 34.8286C24.2533 29.6405 25.4232 29.3597 22.9019 29.2082Z" fill="#A12C66"/>
<path d="M24.3405 19.483C27.8396 21.1583 29.057 23.2977 31.8556 23.2097C34.6542 23.1216 35.7414 21.7691 36.8673 19.9609C36.4079 18.9699 35.1666 21.9493 32.4272 21.9576C29.6878 21.9659 26.104 18.3068 24.3405 19.483Z" fill="#8DAEF7"/>
</g>
<defs>
<linearGradient id="paint0_linear_321_6763" x1="15.0995" y1="30.1087" x2="15.0995" y2="9.20037" gradientUnits="userSpaceOnUse">
<stop stop-color="#7196FF"/>
<stop offset="1" stop-color="#2A5EE8"/>
</linearGradient>
<clipPath id="clip0_321_6763">
<rect x="0.504883" y="0.787109" width="29.1892" height="29.1892" rx="14.5946" transform="rotate(-0.173721 0.504883 0.787109)" fill="white"/>
</clipPath>
</defs>
</svg>
