<svg width="39" height="39" viewBox="0 0 39 39" fill="none" xmlns="http://www.w3.org/2000/svg">
<path d="M22.7622 18.3883C23.3706 15.8299 21.1399 13.5992 18.5815 14.2076C17.3803 14.504 16.3975 15.4867 16.1011 16.6879C15.4927 19.2463 17.7235 21.4771 20.2819 20.8687C21.4987 20.5723 22.4815 19.5895 22.7622 18.3883Z" fill="#38A312"/>
<path d="M10.1082 28.7314C9.82744 28.7314 9.53104 28.6222 9.31264 28.4194C6.28627 25.6114 4.55469 21.6491 4.55469 17.5307C4.55469 9.32518 11.2314 2.64844 19.437 2.64844C27.6425 2.64844 34.3192 9.32518 34.3192 17.5307C34.3192 21.6803 32.65 25.5178 29.6237 28.3726C29.1557 28.8094 28.4069 28.7938 27.9701 28.3258C27.5333 27.8578 27.5489 27.109 28.0169 26.6722C30.5752 24.2698 31.9792 21.0407 31.9792 17.5463C31.9792 10.6356 26.3477 5.00402 19.437 5.00402C12.5262 5.00402 6.89467 10.6356 6.89467 17.5463C6.89467 21.0719 8.31425 24.3166 10.9038 26.719C11.3718 27.1558 11.403 27.9046 10.9662 28.3726C10.7322 28.6066 10.4202 28.7314 10.1082 28.7314Z" fill="#38A312"/>
<path d="M25.6774 24.5658C25.3966 24.5658 25.1002 24.4566 24.8818 24.2538C24.4138 23.817 24.3826 23.0682 24.835 22.6002C26.1298 21.2274 26.8474 19.4178 26.8474 17.5458C26.8474 13.4587 23.5246 10.1515 19.4531 10.1515C15.3815 10.1515 12.0587 13.4743 12.0587 17.5458C12.0587 19.4334 12.7763 21.2274 14.0711 22.6002C14.5079 23.0682 14.4923 23.817 14.0243 24.2538C13.5563 24.7062 12.8075 24.675 12.3707 24.207C10.6703 22.3974 9.71875 20.0262 9.71875 17.5458C9.71875 12.1795 14.0867 7.81152 19.4531 7.81152C24.8194 7.81152 29.1874 12.1795 29.1874 17.5458C29.1874 20.0262 28.2514 22.3974 26.5354 24.207C26.3014 24.441 25.9894 24.5658 25.6774 24.5658Z" fill="#38A312"/>
<path d="M16.7842 26.6874L14.5379 29.4798C12.7595 31.7106 14.3507 35.0177 17.1898 35.0177H21.667C24.5218 35.0177 26.113 31.7106 24.319 29.4954L22.0726 26.703C20.731 24.987 18.1414 24.987 16.7842 26.6874Z" fill="#38A312"/>
</svg>
