<svg width="24" height="24" viewBox="0 0 24 24" fill="none" xmlns="http://www.w3.org/2000/svg">
<path d="M21.6562 10.5C21.9844 10.5 22.2891 10.5586 22.5703 10.6758C22.8516 10.793 23.1016 10.957 23.3203 11.168C23.5391 11.3789 23.7031 11.625 23.8125 11.9062C23.9219 12.1875 23.9844 12.4922 24 12.8203C24 13.125 23.9414 13.4219 23.8242 13.7109C23.707 14 23.5391 14.2539 23.3203 14.4727L14.918 22.8984L10.5 24L11.6016 19.582L20.0039 11.168C20.2227 10.9492 20.4766 10.7852 20.7656 10.6758C21.0547 10.5664 21.3516 10.5078 21.6562 10.5ZM22.2539 13.418C22.418 13.2539 22.5 13.0547 22.5 12.8203C22.5 12.5781 22.4219 12.3828 22.2656 12.2344C22.1094 12.0859 21.9062 12.0078 21.6562 12C21.5469 12 21.4414 12.0156 21.3398 12.0469C21.2383 12.0781 21.1484 12.1367 21.0703 12.2227L12.9609 20.3555L12.5625 21.9375L14.1445 21.5391L22.2539 13.418ZM7.5 10.5H6V9H7.5V10.5ZM18 10.5H9V9H18V10.5ZM6 13.5H7.5V15H6V13.5ZM7.5 6H6V4.5H7.5V6ZM18 6H9V4.5H18V6ZM4.5 19.5H9.69141L9.31641 21H3V0H21V8.70703C20.4766 8.78516 19.9766 8.95703 19.5 9.22266V1.5H4.5V19.5ZM9 13.5H15.0234L13.5234 15H9V13.5Z" fill="#676767"/>
</svg>
