<svg width="18" height="18" viewBox="0 0 18 18" fill="none" xmlns="http://www.w3.org/2000/svg">
<path d="M9.01494 2.18262C6.53244 2.18262 4.51494 4.20012 4.51494 6.68262V8.85012C4.51494 9.30762 4.31994 10.0051 4.08744 10.3951L3.22494 11.8276C2.69244 12.7126 3.05994 13.6951 4.03494 14.0251C7.26744 15.1051 10.7549 15.1051 13.9874 14.0251C14.8949 13.7251 15.2924 12.6526 14.7974 11.8276L13.9349 10.3951C13.7099 10.0051 13.5149 9.30762 13.5149 8.85012V6.68262C13.5149 4.20762 11.4899 2.18262 9.01494 2.18262Z" stroke="#676767" stroke-width="1.5" stroke-miterlimit="10" stroke-linecap="round"/>
<path d="M10.402 2.40008C10.1695 2.33258 9.92945 2.28008 9.68195 2.25008C8.96195 2.16008 8.27195 2.21258 7.62695 2.40008C7.84445 1.84508 8.38445 1.45508 9.01445 1.45508C9.64445 1.45508 10.1845 1.84508 10.402 2.40008Z" stroke="#676767" stroke-width="1.5" stroke-miterlimit="10" stroke-linecap="round" stroke-linejoin="round"/>
<path d="M11.2656 14.2949C11.2656 15.5324 10.2531 16.5449 9.01562 16.5449C8.40063 16.5449 7.83062 16.2899 7.42562 15.8849C7.02062 15.4799 6.76562 14.9099 6.76562 14.2949" stroke="#676767" stroke-width="1.5" stroke-miterlimit="10"/>
</svg>
