<svg width="62" height="54" viewBox="0 0 62 54" fill="none" xmlns="http://www.w3.org/2000/svg">
<path d="M46.9995 40.3334V53.6667H41.6662V40.3334C41.6652 34.7004 43.2861 29.1862 46.3352 24.4498C49.3844 19.7134 53.7328 15.9551 58.8609 13.624L61.0662 18.4774C56.8704 20.385 53.3126 23.4606 50.8181 27.3364C48.3237 31.2121 46.998 35.7242 46.9995 40.3334ZM20.3329 40.3334V53.6667H14.9995V40.3334C15.0008 35.725 13.6753 31.2137 11.1813 27.3384C8.68739 23.4632 5.13046 20.3879 0.935547 18.48L3.14088 13.624C8.26845 15.9555 12.6163 19.7139 15.665 24.4503C18.7137 29.1867 20.3342 34.7007 20.3329 40.3334ZM30.9995 27C27.4633 27 24.0719 25.5953 21.5715 23.0948C19.071 20.5943 17.6662 17.2029 17.6662 13.6667C17.6662 10.1305 19.071 6.7391 21.5715 4.23862C24.0719 1.73813 27.4633 0.333374 30.9995 0.333374C34.5358 0.333374 37.9272 1.73813 40.4276 4.23862C42.9281 6.7391 44.3329 10.1305 44.3329 13.6667C44.3329 17.2029 42.9281 20.5943 40.4276 23.0948C37.9272 25.5953 34.5358 27 30.9995 27ZM30.9995 21.6667C32.0501 21.6667 33.0904 21.4598 34.061 21.0577C35.0316 20.6557 35.9135 20.0664 36.6564 19.3236C37.3993 18.5807 37.9885 17.6988 38.3906 16.7282C38.7926 15.7576 38.9995 14.7173 38.9995 13.6667C38.9995 12.6161 38.7926 11.5758 38.3906 10.6052C37.9885 9.63463 37.3993 8.75272 36.6564 8.00985C35.9135 7.26698 35.0316 6.67771 34.061 6.27567C33.0904 5.87363 32.0501 5.66671 30.9995 5.66671C28.8778 5.66671 26.843 6.50956 25.3427 8.00985C23.8424 9.51015 22.9995 11.545 22.9995 13.6667C22.9995 15.7884 23.8424 17.8233 25.3427 19.3236C26.843 20.8239 28.8778 21.6667 30.9995 21.6667Z" fill="#90050F"/>
</svg>
