<svg width="35" height="35" viewBox="0 0 35 35" fill="none" xmlns="http://www.w3.org/2000/svg">
<rect width="35" height="35" rx="4" fill="#F3E3CB"/>
<path d="M17 28C22.5228 28 27 23.5228 27 18C27 12.4772 22.5228 8 17 8C11.4772 8 7 12.4772 7 18C7 23.5228 11.4772 28 17 28Z" stroke="#AA7B34" stroke-width="1.5" stroke-linecap="round" stroke-linejoin="round"/>
<path d="M12.9996 9H13.9996C12.0496 14.84 12.0496 21.16 13.9996 27H12.9996" stroke="#AA7B34" stroke-width="1.5" stroke-linecap="round" stroke-linejoin="round"/>
<path d="M20 9C21.95 14.84 21.95 21.16 20 27" stroke="#AA7B34" stroke-width="1.5" stroke-linecap="round" stroke-linejoin="round"/>
<path d="M8 22V21C13.84 22.95 20.16 22.95 26 21V22" stroke="#AA7B34" stroke-width="1.5" stroke-linecap="round" stroke-linejoin="round"/>
<path d="M8 15.0001C13.84 13.0501 20.16 13.0501 26 15.0001" stroke="#AA7B34" stroke-width="1.5" stroke-linecap="round" stroke-linejoin="round"/>
</svg>
