<svg width="18" height="18" viewBox="0 0 18 18" fill="none" xmlns="http://www.w3.org/2000/svg">
<path d="M12.3893 4.23755L10.0643 2.43755C9.76431 2.13755 9.08931 1.98755 8.63931 1.98755H5.78931C4.88931 1.98755 3.91431 2.66255 3.68931 3.56255L1.88931 9.03755C1.51431 10.0875 2.18931 10.9875 3.31431 10.9875H6.31431C6.76431 10.9875 7.13931 11.3625 7.06431 11.8875L6.68931 14.2875C6.53931 14.9625 6.98931 15.7125 7.66431 15.9375C8.26431 16.1625 9.01431 15.8625 9.31431 15.4125L12.3893 10.8375" stroke="#676767" stroke-miterlimit="10"/>
<path d="M16.2148 4.2375V11.5875C16.2148 12.6375 15.7648 13.0125 14.7148 13.0125H13.9648C12.9148 13.0125 12.4648 12.6375 12.4648 11.5875V4.2375C12.4648 3.1875 12.9148 2.8125 13.9648 2.8125H14.7148C15.7648 2.8125 16.2148 3.1875 16.2148 4.2375Z" stroke="#676767" stroke-linecap="round" stroke-linejoin="round"/>
</svg>
