<svg width="29" height="32" viewBox="0 0 29 32" fill="none" xmlns="http://www.w3.org/2000/svg">
<rect width="29" height="32" fill="white"/>
<g id="Company Dashboard">
<rect width="14187" height="20322" transform="translate(-2256 -4686)" fill="white"/>
<g id="Chat">
<rect x="-1328.5" y="-346.5" width="1727" height="1116" stroke="black"/>
<g id="Group 158">
<g id="Group 285">
<g id="Group 249">
<g id="Group 238">
<g id="Group 256">
<g id="Group 257">
<g id="carbon:overflow-menu-vertical">
<path id="Vector" d="M14.3416 10C15.3318 10 16.1344 9.10457 16.1344 8C16.1344 6.89543 15.3318 6 14.3416 6C13.3515 6 12.5488 6.89543 12.5488 8C12.5488 9.10457 13.3515 10 14.3416 10Z" fill="#6D717A"/>
<path id="Vector_2" d="M14.3416 18C15.3318 18 16.1344 17.1046 16.1344 16C16.1344 14.8954 15.3318 14 14.3416 14C13.3515 14 12.5488 14.8954 12.5488 16C12.5488 17.1046 13.3515 18 14.3416 18Z" fill="#6D717A"/>
<path id="Vector_3" d="M14.3416 26C15.3318 26 16.1344 25.1046 16.1344 24C16.1344 22.8954 15.3318 22 14.3416 22C13.3515 22 12.5488 22.8954 12.5488 24C12.5488 25.1046 13.3515 26 14.3416 26Z" fill="#6D717A"/>
</g>
</g>
</g>
</g>
</g>
</g>
</g>
</g>
</g>
</svg>
