<svg width="18" height="18" viewBox="0 0 18 18" fill="none" xmlns="http://www.w3.org/2000/svg">
<path d="M9 11.6827L6.34575 9.02925L6.87675 8.48925L8.625 10.2375V3.75H9.375V10.2375L11.1225 8.49L11.6542 9.02925L9 11.6827ZM4.962 14.25C4.6165 14.25 4.32825 14.1345 4.09725 13.9035C3.86625 13.6725 3.7505 13.384 3.75 13.038V11.2208H4.5V13.038C4.5 13.1535 4.548 13.2595 4.644 13.356C4.74 13.4525 4.84575 13.5005 4.96125 13.5H13.0387C13.1538 13.5 13.2595 13.452 13.356 13.356C13.4525 13.26 13.5005 13.154 13.5 13.038V11.2208H14.25V13.038C14.25 13.3835 14.1345 13.6718 13.9035 13.9028C13.6725 14.1338 13.384 14.2495 13.038 14.25H4.962Z" fill="#676767"/>
</svg>
