<svg width="25" height="24" viewBox="0 0 25 24" fill="none" xmlns="http://www.w3.org/2000/svg">
<ellipse cx="12.4547" cy="12" rx="12.0426" ry="12" fill="#38A312"/>
<path d="M7 13.6235V14.8056C7 14.9145 7.12221 15 7.27774 15H8.9664C9.03861 15 9.11082 14.9806 9.16082 14.9417L15.2267 10.6995L13.1436 9.24134L7.08332 13.4835C7.02777 13.5224 7 13.5691 7 13.6235ZM16.8376 9.02359L15.5377 8.11371C15.4863 8.07767 15.4253 8.04907 15.3581 8.02956C15.2909 8.01004 15.2189 8 15.1461 8C15.0734 8 15.0013 8.01004 14.9341 8.02956C14.8669 8.04907 14.8059 8.07767 14.7545 8.11371L13.738 8.82528L15.821 10.2834L16.8376 9.57185C16.889 9.53588 16.9299 9.49315 16.9578 9.44611C16.9857 9.39907 17 9.34864 17 9.29772C17 9.24679 16.9857 9.19637 16.9578 9.14933C16.9299 9.10229 16.889 9.05956 16.8376 9.02359Z" fill="white"/>
</svg>
