<svg width="64" height="64" viewBox="0 0 64 64" fill="none" xmlns="http://www.w3.org/2000/svg">
<path d="M18.6668 50.6667C21.6123 50.6667 24.0002 48.2789 24.0002 45.3333C24.0002 42.3877 21.6123 40 18.6668 40C15.7213 40 13.3335 42.3877 13.3335 45.3333C13.3335 48.2789 15.7213 50.6667 18.6668 50.6667Z" stroke="#8F060E" stroke-width="1.5" stroke-miterlimit="1.5" stroke-linecap="round" stroke-linejoin="round"/>
<path d="M45.3333 50.6667C48.2789 50.6667 50.6667 48.2789 50.6667 45.3333C50.6667 42.3877 48.2789 40 45.3333 40C42.3877 40 40 42.3877 40 45.3333C40 48.2789 42.3877 50.6667 45.3333 50.6667Z" stroke="#8F060E" stroke-width="1.5" stroke-miterlimit="1.5" stroke-linecap="round" stroke-linejoin="round"/>
<path d="M37.3335 45.3333V17.6C37.3335 16.7163 36.6172 16 35.7335 16H6.9335C6.04984 16 5.3335 16.7163 5.3335 17.6V43.7333C5.3335 44.6171 6.04984 45.3333 6.9335 45.3333H12.4002" stroke="#8F060E" stroke-width="1.5" stroke-linecap="round"/>
<path d="M37.3332 45.3333H24.1333" stroke="#8F060E" stroke-width="1.5" stroke-linecap="round"/>
<path d="M37.3335 24H52.2938C52.926 24 53.4991 24.3724 53.7559 24.9502L58.529 35.6896C58.6199 35.8944 58.6668 36.1157 58.6668 36.3395V43.7333C58.6668 44.6171 57.9506 45.3333 57.0668 45.3333H52.0002" stroke="#8F060E" stroke-width="1.5" stroke-linecap="round"/>
<path d="M37.3335 45.3333H40.0002" stroke="#8F060E" stroke-width="1.5" stroke-linecap="round"/>
</svg>
