<svg width="35" height="35" viewBox="0 0 35 35" fill="none" xmlns="http://www.w3.org/2000/svg">
<rect width="35" height="35" rx="4" fill="#DFFFE0"/>
<path d="M23.0001 13.16C22.9401 13.15 22.8701 13.15 22.8101 13.16C21.4301 13.11 20.3301 11.98 20.3301 10.58C20.3301 9.15 21.4801 8 22.9101 8C24.3401 8 25.4901 9.16 25.4901 10.58C25.4801 11.98 24.3801 13.11 23.0001 13.16Z" stroke="#3B8E48" stroke-width="1.5" stroke-linecap="round" stroke-linejoin="round"/>
<path d="M21.9695 20.4402C23.3395 20.6702 24.8495 20.4302 25.9095 19.7202C27.3195 18.7802 27.3195 17.2402 25.9095 16.3002C24.8395 15.5902 23.3095 15.3502 21.9395 15.5902" stroke="#3B8E48" stroke-width="1.5" stroke-linecap="round" stroke-linejoin="round"/>
<path d="M10.9685 13.16C11.0285 13.15 11.0985 13.15 11.1585 13.16C12.5385 13.11 13.6385 11.98 13.6385 10.58C13.6385 9.15 12.4885 8 11.0585 8C9.62852 8 8.47852 9.16 8.47852 10.58C8.48852 11.98 9.58852 13.11 10.9685 13.16Z" stroke="#3B8E48" stroke-width="1.5" stroke-linecap="round" stroke-linejoin="round"/>
<path d="M11.9995 20.4402C10.6295 20.6702 9.11945 20.4302 8.05945 19.7202C6.64945 18.7802 6.64945 17.2402 8.05945 16.3002C9.12945 15.5902 10.6595 15.3502 12.0295 15.5902" stroke="#3B8E48" stroke-width="1.5" stroke-linecap="round" stroke-linejoin="round"/>
<path d="M17.0001 20.6302C16.9401 20.6202 16.8701 20.6202 16.8101 20.6302C15.4301 20.5802 14.3301 19.4502 14.3301 18.0502C14.3301 16.6202 15.4801 15.4702 16.9101 15.4702C18.3401 15.4702 19.4901 16.6302 19.4901 18.0502C19.4801 19.4502 18.3801 20.5902 17.0001 20.6302Z" stroke="#3B8E48" stroke-width="1.5" stroke-linecap="round" stroke-linejoin="round"/>
<path d="M14.0907 23.7804C12.6807 24.7204 12.6807 26.2603 14.0907 27.2003C15.6907 28.2703 18.3107 28.2703 19.9107 27.2003C21.3207 26.2603 21.3207 24.7204 19.9107 23.7804C18.3207 22.7204 15.6907 22.7204 14.0907 23.7804Z" stroke="#3B8E48" stroke-width="1.5" stroke-linecap="round" stroke-linejoin="round"/>
</svg>
