<svg width="24" height="24" viewBox="0 0 24 24" fill="none" xmlns="http://www.w3.org/2000/svg">
<g clip-path="url(#clip0_1_3616)">
<path fill-rule="evenodd" clip-rule="evenodd" d="M10.5 4.00025C8.77609 4.00025 7.12279 4.68507 5.90381 5.90406C4.68482 7.12305 4 8.77635 4 10.5003C4 12.2242 4.68482 13.8775 5.90381 15.0964C7.12279 16.3154 8.77609 17.0003 10.5 17.0003C12.2239 17.0003 13.8772 16.3154 15.0962 15.0964C16.3152 13.8775 17 12.2242 17 10.5003C17 8.77635 16.3152 7.12305 15.0962 5.90406C13.8772 4.68507 12.2239 4.00025 10.5 4.00025ZM2 10.5003C2.00012 9.14485 2.32436 7.80912 2.94569 6.60451C3.56702 5.3999 4.46742 4.36135 5.57175 3.57549C6.67609 2.78963 7.95235 2.27926 9.29404 2.08696C10.6357 1.89466 12.004 2.026 13.2846 2.47003C14.5652 2.91406 15.7211 3.6579 16.6557 4.63949C17.5904 5.62108 18.2768 6.81196 18.6576 8.11277C19.0384 9.41358 19.1026 10.7866 18.8449 12.1173C18.5872 13.448 18.015 14.6977 17.176 15.7623L20.828 19.4143C21.0102 19.6029 21.111 19.8555 21.1087 20.1177C21.1064 20.3799 21.0012 20.6307 20.8158 20.8161C20.6304 21.0015 20.3796 21.1066 20.1174 21.1089C19.8552 21.1112 19.6026 21.0104 19.414 20.8283L15.762 17.1763C14.5086 18.1642 13.0024 18.7794 11.4157 18.9514C9.82905 19.1233 8.22602 18.8451 6.79009 18.1485C5.35417 17.4519 4.14336 16.3651 3.29623 15.0126C2.44911 13.66 1.99989 12.0962 2 10.5003ZM9.5 7.00025C9.5 6.73504 9.60536 6.48068 9.79289 6.29315C9.98043 6.10561 10.2348 6.00025 10.5 6.00025C11.6935 6.00025 12.8381 6.47436 13.682 7.31827C14.5259 8.16219 15 9.30678 15 10.5003C15 10.7655 14.8946 11.0198 14.7071 11.2074C14.5196 11.3949 14.2652 11.5003 14 11.5003C13.7348 11.5003 13.4804 11.3949 13.2929 11.2074C13.1054 11.0198 13 10.7655 13 10.5003C13 9.83721 12.7366 9.20133 12.2678 8.73249C11.7989 8.26365 11.163 8.00025 10.5 8.00025C10.2348 8.00025 9.98043 7.8949 9.79289 7.70736C9.60536 7.51982 9.5 7.26547 9.5 7.00025Z" fill="#828282"/>
</g>
<defs>
<clipPath id="clip0_1_3616">
<rect width="24" height="24" fill="white"/>
</clipPath>
</defs>
</svg>
