<svg width="49" height="52" viewBox="0 0 49 52" fill="none" xmlns="http://www.w3.org/2000/svg">
<path d="M37.7327 0.400024C37.3083 0.400024 36.9014 0.568596 36.6013 0.868654C36.3013 1.16871 36.1327 1.57568 36.1327 2.00002C36.1327 2.42437 36.3013 2.83134 36.6013 3.1314C36.9014 3.43145 37.3083 3.60002 37.7327 3.60002H43.4703L28.1327 18.9376L19.6655 10.4672C19.5169 10.3182 19.3403 10.2 19.1459 10.1193C18.9515 10.0387 18.7431 9.99716 18.5327 9.99716C18.3222 9.99716 18.1138 10.0387 17.9195 10.1193C17.7251 10.2 17.5485 10.3182 17.3999 10.4672L1.39988 26.4672C1.09945 26.7677 0.930664 27.1751 0.930664 27.6C0.930664 28.0249 1.09945 28.4324 1.39988 28.7328C1.70032 29.0333 2.1078 29.202 2.53269 29.202C2.95757 29.202 3.36505 29.0333 3.66549 28.7328L18.5327 13.8624L26.9999 22.3328C27.1485 22.4818 27.3251 22.6 27.5195 22.6807C27.7138 22.7614 27.9222 22.8029 28.1327 22.8029C28.3431 22.8029 28.5515 22.7614 28.7459 22.6807C28.9403 22.6 29.1169 22.4818 29.2655 22.3328L45.7327 5.86242V11.6C45.7327 12.0244 45.9013 12.4313 46.2013 12.7314C46.5014 13.0315 46.9083 13.2 47.3327 13.2C47.757 13.2 48.164 13.0315 48.4641 12.7314C48.7641 12.4313 48.9327 12.0244 48.9327 11.6V2.00002C48.9327 1.57568 48.7641 1.16871 48.4641 0.868654C48.164 0.568596 47.757 0.400024 47.3327 0.400024H37.7327ZM40.9327 22.8C40.5083 22.8 40.1014 22.9686 39.8013 23.2687C39.5013 23.5687 39.3327 23.9757 39.3327 24.4V50C39.3327 50.4244 39.5013 50.8313 39.8013 51.1314C40.1014 51.4315 40.5083 51.6 40.9327 51.6C41.357 51.6 41.764 51.4315 42.0641 51.1314C42.3641 50.8313 42.5327 50.4244 42.5327 50V24.4C42.5327 23.9757 42.3641 23.5687 42.0641 23.2687C41.764 22.9686 41.357 22.8 40.9327 22.8ZM15.3327 29.2C14.9083 29.2 14.5014 29.3686 14.2013 29.6687C13.9013 29.9687 13.7327 30.3757 13.7327 30.8V50C13.7327 50.4244 13.9013 50.8313 14.2013 51.1314C14.5014 51.4315 14.9083 51.6 15.3327 51.6C15.757 51.6 16.164 51.4315 16.4641 51.1314C16.7641 50.8313 16.9327 50.4244 16.9327 50V30.8C16.9327 30.3757 16.7641 29.9687 16.4641 29.6687C16.164 29.3686 15.757 29.2 15.3327 29.2ZM26.5327 37.2C26.5327 36.7757 26.7013 36.3687 27.0013 36.0687C27.3014 35.7686 27.7083 35.6 28.1327 35.6C28.557 35.6 28.964 35.7686 29.2641 36.0687C29.5641 36.3687 29.7327 36.7757 29.7327 37.2V50C29.7327 50.4244 29.5641 50.8313 29.2641 51.1314C28.964 51.4315 28.557 51.6 28.1327 51.6C27.7083 51.6 27.3014 51.4315 27.0013 51.1314C26.7013 50.8313 26.5327 50.4244 26.5327 50V37.2ZM0.932685 40.4C0.932685 39.9757 1.10126 39.5687 1.40131 39.2687C1.70137 38.9686 2.10834 38.8 2.53269 38.8C2.95703 38.8 3.364 38.9686 3.66406 39.2687C3.96411 39.5687 4.13269 39.9757 4.13269 40.4V50C4.13269 50.4244 3.96411 50.8313 3.66406 51.1314C3.364 51.4315 2.95703 51.6 2.53269 51.6C2.10834 51.6 1.70137 51.4315 1.40131 51.1314C1.10126 50.8313 0.932685 50.4244 0.932685 50V40.4Z" fill="#90050F"/>
</svg>
