<svg width="65" height="64" viewBox="0 0 65 64" fill="none" xmlns="http://www.w3.org/2000/svg">
<path d="M27.8674 14.4C27.8674 13.127 28.3731 11.9061 29.2733 11.0059C30.1734 10.1057 31.3943 9.60002 32.6674 9.60002C33.9404 9.60002 35.1613 10.1057 36.0615 11.0059C36.9617 11.9061 37.4674 13.127 37.4674 14.4C37.4674 15.6731 36.9617 16.894 36.0615 17.7941C35.1613 18.6943 33.9404 19.2 32.6674 19.2C31.3943 19.2 30.1734 18.6943 29.2733 17.7941C28.3731 16.894 27.8674 15.6731 27.8674 14.4ZM32.6674 6.40002C30.5457 6.40002 28.5108 7.24288 27.0105 8.74317C25.5102 10.2435 24.6674 12.2783 24.6674 14.4C24.6674 16.5218 25.5102 18.5566 27.0105 20.0569C28.5108 21.5572 30.5457 22.4 32.6674 22.4C34.7891 22.4 36.8239 21.5572 38.3242 20.0569C39.8245 18.5566 40.6674 16.5218 40.6674 14.4C40.6674 12.2783 39.8245 10.2435 38.3242 8.74317C36.8239 7.24288 34.7891 6.40002 32.6674 6.40002ZM47.0674 16C47.0674 15.1513 47.4045 14.3374 48.0046 13.7373C48.6048 13.1372 49.4187 12.8 50.2674 12.8C51.1161 12.8 51.93 13.1372 52.5301 13.7373C53.1302 14.3374 53.4674 15.1513 53.4674 16C53.4674 16.8487 53.1302 17.6626 52.5301 18.2628C51.93 18.8629 51.1161 19.2 50.2674 19.2C49.4187 19.2 48.6048 18.8629 48.0046 18.2628C47.4045 17.6626 47.0674 16.8487 47.0674 16ZM50.2674 9.60002C48.57 9.60002 46.9421 10.2743 45.7419 11.4745C44.5417 12.6748 43.8674 14.3026 43.8674 16C43.8674 17.6974 44.5417 19.3253 45.7419 20.5255C46.9421 21.7257 48.57 22.4 50.2674 22.4C51.9648 22.4 53.5926 21.7257 54.7929 20.5255C55.9931 19.3253 56.6674 17.6974 56.6674 16C56.6674 14.3026 55.9931 12.6748 54.7929 11.4745C53.5926 10.2743 51.9648 9.60002 50.2674 9.60002ZM15.0674 12.8C14.2187 12.8 13.4048 13.1372 12.8046 13.7373C12.2045 14.3374 11.8674 15.1513 11.8674 16C11.8674 16.8487 12.2045 17.6626 12.8046 18.2628C13.4048 18.8629 14.2187 19.2 15.0674 19.2C15.9161 19.2 16.73 18.8629 17.3301 18.2628C17.9302 17.6626 18.2674 16.8487 18.2674 16C18.2674 15.1513 17.9302 14.3374 17.3301 13.7373C16.73 13.1372 15.9161 12.8 15.0674 12.8ZM8.66738 16C8.66738 14.3026 9.34167 12.6748 10.5419 11.4745C11.7421 10.2743 13.37 9.60002 15.0674 9.60002C16.7648 9.60002 18.3926 10.2743 19.5929 11.4745C20.7931 12.6748 21.4674 14.3026 21.4674 16C21.4674 17.6974 20.7931 19.3253 19.5929 20.5255C18.3926 21.7257 16.7648 22.4 15.0674 22.4C13.37 22.4 11.7421 21.7257 10.5419 20.5255C9.34167 19.3253 8.66738 17.6974 8.66738 16ZM16.6674 48L16.9874 47.9936C17.2071 49.0795 17.5314 50.1195 17.9602 51.1136C16.6027 51.2981 15.2214 51.1899 13.9092 50.7963C12.597 50.4027 11.3842 49.7328 10.3524 48.8316C9.32052 47.9304 8.49351 46.8188 7.92691 45.5715C7.36031 44.3242 7.06723 42.97 7.06738 41.6V29.6C7.06738 27.392 8.85938 25.6 11.0674 25.6H17.8802C17.2394 26.5573 16.8387 27.655 16.7122 28.8H11.0674C10.8552 28.8 10.6517 28.8843 10.5017 29.0343C10.3517 29.1844 10.2674 29.3879 10.2674 29.6V41.6C10.2674 43.2974 10.9417 44.9253 12.1419 46.1255C13.3421 47.3257 14.97 48 16.6674 48ZM45.3874 28.8C45.0162 26.976 43.4034 25.6 41.4674 25.6H23.8674C21.6594 25.6 19.8674 27.392 19.8674 29.6V44.8C19.8675 46.5483 20.2257 48.278 20.9199 49.8825C21.6142 51.487 22.6298 52.9323 23.904 54.1292C25.1783 55.3261 26.6843 56.2493 28.329 56.8418C29.9738 57.4344 31.7225 57.6837 33.4674 57.5744C32.6394 56.5685 31.9257 55.4738 31.3394 54.3104C29.0452 53.99 26.9442 52.8508 25.424 51.1029C23.9037 49.3551 23.0667 47.1165 23.0674 44.8V29.6C23.0674 29.3879 23.1517 29.1844 23.3017 29.0343C23.4517 28.8843 23.6552 28.8 23.8674 28.8H45.3874ZM48.6226 28.8H54.2674C54.4796 28.8 54.683 28.8843 54.8331 29.0343C54.9831 29.1844 55.0674 29.3879 55.0674 29.6V30.72C56.2151 31.3088 57.2818 32.0096 58.2674 32.8224V29.6C58.2674 27.392 56.4754 25.6 54.2674 25.6H47.4546C48.0818 26.5344 48.4946 27.6256 48.6226 28.8ZM47.0674 32C43.2483 32 39.5856 33.5172 36.885 36.2177C34.1845 38.9182 32.6674 42.5809 32.6674 46.4C32.6674 50.2191 34.1845 53.8818 36.885 56.5824C39.5856 59.2829 43.2483 60.8 47.0674 60.8C50.8865 60.8 54.5492 59.2829 57.2497 56.5824C59.9502 53.8818 61.4674 50.2191 61.4674 46.4C61.4674 42.5809 59.9502 38.9182 57.2497 36.2177C54.5492 33.5172 50.8865 32 47.0674 32ZM47.0674 38.4C47.4917 38.4 47.8987 38.5686 48.1988 38.8687C48.4988 39.1687 48.6674 39.5757 48.6674 40V44.8H53.4674C53.8917 44.8 54.2987 44.9686 54.5988 45.2687C54.8988 45.5687 55.0674 45.9757 55.0674 46.4C55.0674 46.8244 54.8988 47.2313 54.5988 47.5314C54.2987 47.8315 53.8917 48 53.4674 48H48.6674V52.8C48.6674 53.2244 48.4988 53.6313 48.1988 53.9314C47.8987 54.2315 47.4917 54.4 47.0674 54.4C46.643 54.4 46.2361 54.2315 45.936 53.9314C45.636 53.6313 45.4674 53.2244 45.4674 52.8V48H40.6674C40.243 48 39.8361 47.8315 39.536 47.5314C39.236 47.2313 39.0674 46.8244 39.0674 46.4C39.0674 45.9757 39.236 45.5687 39.536 45.2687C39.8361 44.9686 40.243 44.8 40.6674 44.8H45.4674V40C45.4674 39.5757 45.636 39.1687 45.936 38.8687C46.2361 38.5686 46.643 38.4 47.0674 38.4Z" fill="#90050F"/>
</svg>
