<svg width="36" height="36" viewBox="0 0 36 36" fill="none" xmlns="http://www.w3.org/2000/svg">
<path d="M16.7422 37.6636V16.4969C16.7422 15.6636 16.9922 14.8511 17.4505 14.1636L23.138 5.70525C24.0339 4.35108 26.263 3.39275 28.1589 4.10108C30.2005 4.78858 31.5547 7.08025 31.1172 9.12192L30.0339 15.9344C29.9505 16.5594 30.1172 17.1219 30.4714 17.5594C30.8255 17.9553 31.3464 18.2053 31.9089 18.2053H40.4714C42.1172 18.2053 43.5339 18.8719 44.3672 20.0386C45.1589 21.1636 45.3047 22.6219 44.7839 24.1011L39.6589 39.7053C39.013 42.2886 36.2005 44.3928 33.4089 44.3928H25.2839C23.888 44.3928 21.9297 43.9136 21.0339 43.0178L18.3672 40.9553C17.3464 40.1844 16.7422 38.9553 16.7422 37.6636Z" fill="#38A312"/>
<path d="M10.1172 12.4346H7.97135C4.74219 12.4346 3.42969 13.6846 3.42969 16.7679V37.7262C3.42969 40.8096 4.74219 42.0596 7.97135 42.0596H10.1172C13.3464 42.0596 14.6589 40.8096 14.6589 37.7262V16.7679C14.6589 13.6846 13.3464 12.4346 10.1172 12.4346Z" fill="#38A312"/>
</svg>
