<svg width="18" height="18" viewBox="0 0 18 18" fill="none" xmlns="http://www.w3.org/2000/svg">
<path d="M5.60938 13.7626L7.93437 15.5626C8.23437 15.8626 8.90937 16.0126 9.35937 16.0126H12.2094C13.1094 16.0126 14.0844 15.3376 14.3094 14.4376L16.1094 8.9626C16.4844 7.9126 15.8094 7.0126 14.6844 7.0126H11.6844C11.2344 7.0126 10.8594 6.6376 10.9344 6.1126L11.3094 3.7126C11.4594 3.0376 11.0094 2.2876 10.3344 2.0626C9.73437 1.8376 8.98437 2.1376 8.68437 2.5876L5.60938 7.1626" stroke="#676767" stroke-miterlimit="10"/>
<path d="M1.78516 13.7625V6.41255C1.78516 5.36255 2.23516 4.98755 3.28516 4.98755H4.03516C5.08516 4.98755 5.53516 5.36255 5.53516 6.41255V13.7625C5.53516 14.8125 5.08516 15.1875 4.03516 15.1875H3.28516C2.23516 15.1875 1.78516 14.8125 1.78516 13.7625Z" stroke="#676767" stroke-linecap="round" stroke-linejoin="round"/>
</svg>
