<svg width="24" height="24" viewBox="0 0 24 24" fill="none" xmlns="http://www.w3.org/2000/svg">
<g clip-path="url(#clip0_185_5088)">
<path fill-rule="evenodd" clip-rule="evenodd" d="M16.95 2.58578C17.1375 2.77331 17.2428 3.02761 17.2428 3.29278C17.2428 3.55794 17.1375 3.81225 16.95 3.99978L13.95 6.99978H19C19.5304 6.99978 20.0391 7.21049 20.4142 7.58557C20.7893 7.96064 21 8.46935 21 8.99978V18.9998C21 19.5302 20.7893 20.0389 20.4142 20.414C20.0391 20.7891 19.5304 20.9998 19 20.9998H5C4.46957 20.9998 3.96086 20.7891 3.58579 20.414C3.21071 20.0389 3 19.5302 3 18.9998V8.99978C3 8.46935 3.21071 7.96064 3.58579 7.58557C3.96086 7.21049 4.46957 6.99978 5 6.99978H8.636L7.05 5.41378C6.86249 5.22614 6.7572 4.9717 6.7573 4.70643C6.75739 4.44115 6.86286 4.18679 7.0505 3.99928C7.23814 3.81177 7.49258 3.70648 7.75785 3.70658C8.02312 3.70667 8.27749 3.81214 8.465 3.99978L10.939 6.47478C11.0328 6.56851 11.1599 6.62117 11.2925 6.62117C11.4251 6.62117 11.5522 6.56851 11.646 6.47478L15.536 2.58478C15.7235 2.39731 15.9778 2.29199 16.243 2.29199C16.5082 2.29199 16.7625 2.39831 16.95 2.58578ZM19 8.99978H5V18.9998H19V8.99978ZM8.98 11.5468C9.00105 11.3545 9.06708 11.1699 9.17275 11.0078C9.27842 10.8458 9.42076 10.7109 9.58824 10.6141C9.75572 10.5173 9.94365 10.4614 10.1368 10.4507C10.3299 10.44 10.5229 10.475 10.7 10.5528C11.4538 10.8856 12.1883 11.2605 12.9 11.6758C13.6164 12.0852 14.3091 12.5346 14.975 13.0218C15.643 13.5158 15.645 14.5108 14.975 15.0058C14.3091 15.4923 13.6163 15.941 12.9 16.3498C11.903 16.9258 11.115 17.2928 10.7 17.4738C10.523 17.552 10.33 17.5873 10.1368 17.5769C9.94356 17.5665 9.7555 17.5107 9.58791 17.4139C9.42032 17.3172 9.27792 17.1822 9.17229 17.0201C9.06666 16.858 9.00078 16.6732 8.98 16.4808C8.89317 15.6613 8.85044 14.8378 8.852 14.0138C8.852 12.8738 8.93 11.9998 8.98 11.5468ZM10.882 12.8528C10.843 13.6256 10.843 14.3999 10.882 15.1728C11.5704 14.8201 12.2406 14.433 12.89 14.0128C12.2406 13.5926 11.5704 13.2054 10.882 12.8528Z" fill="#676767"/>
</g>
<defs>
<clipPath id="clip0_185_5088">
<rect width="24" height="24" fill="white"/>
</clipPath>
</defs>
</svg>
