<svg width="15" height="16" viewBox="0 0 15 16" fill="none" xmlns="http://www.w3.org/2000/svg">
<path d="M6.09375 12.9219C6.09375 13.1373 6.13619 13.3507 6.21863 13.5497C6.30108 13.7488 6.42193 13.9296 6.57428 14.082C6.72662 14.2343 6.90749 14.3552 7.10654 14.4376C7.30558 14.5201 7.51893 14.5625 7.73438 14.5625C7.94982 14.5625 8.16317 14.5201 8.36221 14.4376C8.56126 14.3552 8.74213 14.2343 8.89447 14.082C9.04682 13.9296 9.16767 13.7488 9.25011 13.5497C9.33256 13.3507 9.375 13.1373 9.375 12.9219C9.375 12.4868 9.20215 12.0695 8.89447 11.7618C8.5868 11.4541 8.1695 11.2812 7.73438 11.2812C7.29925 11.2812 6.88195 11.4541 6.57428 11.7618C6.2666 12.0695 6.09375 12.4868 6.09375 12.9219ZM7.03125 12.9219C7.03125 12.7354 7.10533 12.5566 7.23719 12.4247C7.36905 12.2928 7.54789 12.2188 7.73438 12.2188C7.92086 12.2188 8.0997 12.2928 8.23156 12.4247C8.36342 12.5566 8.4375 12.7354 8.4375 12.9219C8.4375 13.1084 8.36342 13.2872 8.23156 13.4191C8.0997 13.5509 7.92086 13.625 7.73438 13.625C7.54789 13.625 7.36905 13.5509 7.23719 13.4191C7.10533 13.2872 7.03125 13.1084 7.03125 12.9219ZM6.09375 8C6.09375 7.78455 6.13619 7.57121 6.21863 7.37216C6.30108 7.17311 6.42193 6.99225 6.57428 6.8399C6.72662 6.68756 6.90749 6.56671 7.10654 6.48426C7.30558 6.40181 7.51893 6.35938 7.73438 6.35938C7.94982 6.35938 8.16317 6.40181 8.36221 6.48426C8.56126 6.56671 8.74213 6.68756 8.89447 6.8399C9.04682 6.99225 9.16767 7.17311 9.25011 7.37216C9.33256 7.57121 9.375 7.78455 9.375 8C9.375 8.43512 9.20215 8.85242 8.89447 9.1601C8.5868 9.46777 8.1695 9.64062 7.73438 9.64062C7.29925 9.64062 6.88195 9.46777 6.57428 9.1601C6.2666 8.85242 6.09375 8.43512 6.09375 8ZM7.03125 8C7.03125 8.18648 7.10533 8.36532 7.23719 8.49718C7.36905 8.62905 7.54789 8.70312 7.73438 8.70312C7.92086 8.70312 8.0997 8.62905 8.23156 8.49718C8.36342 8.36532 8.4375 8.18648 8.4375 8C8.4375 7.81352 8.36342 7.63468 8.23156 7.50282C8.0997 7.37095 7.92086 7.29688 7.73438 7.29688C7.54789 7.29688 7.36905 7.37095 7.23719 7.50282C7.10533 7.63468 7.03125 7.81352 7.03125 8ZM6.09375 3.07812C6.09375 2.86267 6.13619 2.64933 6.21863 2.45028C6.30108 2.25124 6.42193 2.07037 6.57428 1.91803C6.72662 1.76568 6.90749 1.64483 7.10654 1.56239C7.30558 1.47994 7.51893 1.4375 7.73438 1.4375C7.94982 1.4375 8.16317 1.47994 8.36221 1.56239C8.56126 1.64483 8.74213 1.76568 8.89447 1.91803C9.04682 2.07037 9.16767 2.25124 9.25011 2.45028C9.33256 2.64933 9.375 2.86267 9.375 3.07812C9.375 3.51325 9.20215 3.93055 8.89447 4.23822C8.5868 4.5459 8.1695 4.71875 7.73438 4.71875C7.29925 4.71875 6.88195 4.5459 6.57428 4.23822C6.2666 3.93055 6.09375 3.51325 6.09375 3.07812ZM7.03125 3.07812C7.03125 3.26461 7.10533 3.44345 7.23719 3.57531C7.36905 3.70717 7.54789 3.78125 7.73438 3.78125C7.92086 3.78125 8.0997 3.70717 8.23156 3.57531C8.36342 3.44345 8.4375 3.26461 8.4375 3.07812C8.4375 2.89164 8.36342 2.7128 8.23156 2.58094C8.0997 2.44908 7.92086 2.375 7.73438 2.375C7.54789 2.375 7.36905 2.44908 7.23719 2.58094C7.10533 2.7128 7.03125 2.89164 7.03125 3.07812Z" fill="#676767"/>
</svg>
