<svg width="15" height="15" viewBox="0 0 15 15" fill="none" xmlns="http://www.w3.org/2000/svg">
<path d="M6.09375 12.4219C6.09375 12.6373 6.13619 12.8507 6.21863 13.0497C6.30108 13.2488 6.42193 13.4296 6.57428 13.582C6.72662 13.7343 6.90749 13.8552 7.10654 13.9376C7.30558 14.0201 7.51893 14.0625 7.73438 14.0625C7.94982 14.0625 8.16317 14.0201 8.36221 13.9376C8.56126 13.8552 8.74213 13.7343 8.89447 13.582C9.04682 13.4296 9.16767 13.2488 9.25011 13.0497C9.33256 12.8507 9.375 12.6373 9.375 12.4219C9.375 11.9868 9.20215 11.5695 8.89447 11.2618C8.5868 10.9541 8.1695 10.7812 7.73438 10.7812C7.29925 10.7812 6.88195 10.9541 6.57428 11.2618C6.2666 11.5695 6.09375 11.9868 6.09375 12.4219ZM7.03125 12.4219C7.03125 12.2354 7.10533 12.0566 7.23719 11.9247C7.36905 11.7928 7.54789 11.7188 7.73438 11.7188C7.92086 11.7188 8.0997 11.7928 8.23156 11.9247C8.36342 12.0566 8.4375 12.2354 8.4375 12.4219C8.4375 12.6084 8.36342 12.7872 8.23156 12.9191C8.0997 13.0509 7.92086 13.125 7.73438 13.125C7.54789 13.125 7.36905 13.0509 7.23719 12.9191C7.10533 12.7872 7.03125 12.6084 7.03125 12.4219ZM6.09375 7.5C6.09375 7.28455 6.13619 7.07121 6.21863 6.87216C6.30108 6.67311 6.42193 6.49225 6.57428 6.3399C6.72662 6.18756 6.90749 6.06671 7.10654 5.98426C7.30558 5.90181 7.51893 5.85938 7.73438 5.85938C7.94982 5.85938 8.16317 5.90181 8.36221 5.98426C8.56126 6.06671 8.74213 6.18756 8.89447 6.3399C9.04682 6.49225 9.16767 6.67311 9.25011 6.87216C9.33256 7.07121 9.375 7.28455 9.375 7.5C9.375 7.93512 9.20215 8.35242 8.89447 8.6601C8.5868 8.96777 8.1695 9.14062 7.73438 9.14062C7.29925 9.14062 6.88195 8.96777 6.57428 8.6601C6.2666 8.35242 6.09375 7.93512 6.09375 7.5ZM7.03125 7.5C7.03125 7.68648 7.10533 7.86532 7.23719 7.99718C7.36905 8.12905 7.54789 8.20312 7.73438 8.20312C7.92086 8.20312 8.0997 8.12905 8.23156 7.99718C8.36342 7.86532 8.4375 7.68648 8.4375 7.5C8.4375 7.31352 8.36342 7.13468 8.23156 7.00282C8.0997 6.87095 7.92086 6.79688 7.73438 6.79688C7.54789 6.79688 7.36905 6.87095 7.23719 7.00282C7.10533 7.13468 7.03125 7.31352 7.03125 7.5ZM6.09375 2.57812C6.09375 2.36267 6.13619 2.14933 6.21863 1.95028C6.30108 1.75124 6.42193 1.57037 6.57428 1.41803C6.72662 1.26568 6.90749 1.14483 7.10654 1.06239C7.30558 0.979937 7.51893 0.9375 7.73438 0.9375C7.94982 0.9375 8.16317 0.979937 8.36221 1.06239C8.56126 1.14483 8.74213 1.26568 8.89447 1.41803C9.04682 1.57037 9.16767 1.75124 9.25011 1.95028C9.33256 2.14933 9.375 2.36267 9.375 2.57812C9.375 3.01325 9.20215 3.43055 8.89447 3.73822C8.5868 4.0459 8.1695 4.21875 7.73438 4.21875C7.29925 4.21875 6.88195 4.0459 6.57428 3.73822C6.2666 3.43055 6.09375 3.01325 6.09375 2.57812ZM7.03125 2.57812C7.03125 2.76461 7.10533 2.94345 7.23719 3.07531C7.36905 3.20717 7.54789 3.28125 7.73438 3.28125C7.92086 3.28125 8.0997 3.20717 8.23156 3.07531C8.36342 2.94345 8.4375 2.76461 8.4375 2.57812C8.4375 2.39164 8.36342 2.2128 8.23156 2.08094C8.0997 1.94908 7.92086 1.875 7.73438 1.875C7.54789 1.875 7.36905 1.94908 7.23719 2.08094C7.10533 2.2128 7.03125 2.39164 7.03125 2.57812Z" fill="#676767"/>
</svg>
