<svg width="65" height="64" viewBox="0 0 65 64" fill="none" xmlns="http://www.w3.org/2000/svg">
<path d="M39.3335 22.6666C37.2516 22.1269 34.3586 21.3333 32.0394 21.3333C20.6038 21.3333 11.3335 28.4469 11.3335 37.2221C11.3335 42.2647 14.3947 46.7586 19.1688 49.6695L17.8753 53.9357C17.5638 54.9631 18.3327 55.9999 19.4065 55.9999H24.1107C24.4571 55.9999 24.7941 55.8876 25.0711 55.6796L28.79 52.8887H35.2884L39.0074 55.6796C39.2844 55.8876 39.6215 55.9999 39.9679 55.9999H44.6722C45.7458 55.9999 46.5148 54.9631 46.2031 53.9357L44.9098 49.6695C47.754 47.9354 49.9903 45.6391 51.3335 42.9999" stroke="#8F060E" stroke-width="1.5" stroke-linecap="round" stroke-linejoin="round"/>
<path d="M39.3335 22.6667L51.3335 18.6667L51.1095 28.3422L56.6668 30.6667V40.0001L51.5311 42.6668" stroke="#8F060E" stroke-width="1.5" stroke-linecap="round" stroke-linejoin="round"/>
<path d="M42.0001 34.6667C41.2638 34.6667 40.6667 34.0696 40.6667 33.3333C40.6667 32.5971 41.2638 32 42.0001 32C42.7363 32 43.3334 32.5971 43.3334 33.3333C43.3334 34.0696 42.7363 34.6667 42.0001 34.6667Z" fill="#8F060E" stroke="#8F060E" stroke-width="1.5" stroke-linecap="round" stroke-linejoin="round"/>
<path d="M6 26.6667C6 26.6667 6 33.0667 11.3333 34.6667" stroke="#8F060E" stroke-width="1.5" stroke-linecap="round" stroke-linejoin="round"/>
<path d="M34.8022 20.6746C35.1462 19.6835 35.3334 18.617 35.3334 17.5059C35.3334 12.2559 31.1547 8 26.0001 8C20.8454 8 16.6667 12.2559 16.6667 17.5059C16.6667 20.017 17.6227 22.3007 19.1842 24" stroke="#8F060E" stroke-width="1.5" stroke-linejoin="round"/>
</svg>
