<svg width="38" height="38" viewBox="0 0 38 38" fill="none" xmlns="http://www.w3.org/2000/svg">
<g id="vuesax/bold/share">
<g id="share">
<path id="Vector" d="M31.4558 20.0564C30.8858 20.0564 30.4081 19.625 30.3465 19.0549C29.9767 15.6653 28.1587 12.6147 25.3545 10.6734C24.8461 10.319 24.7228 9.62565 25.0772 9.11721C25.4316 8.60877 26.1249 8.48551 26.6333 8.83988C29.9767 11.1664 32.1337 14.8025 32.5806 18.8238C32.6422 19.4401 32.1954 19.9948 31.5791 20.0564C31.5329 20.0564 31.502 20.0564 31.4558 20.0564Z" fill="#38A312"/>
<path id="Vector_2" d="M5.84938 20.1342C5.81857 20.1342 5.77235 20.1342 5.74153 20.1342C5.12524 20.0726 4.67843 19.518 4.74006 18.9017C5.15605 14.8803 7.28227 11.2442 10.5948 8.90229C11.0879 8.54792 11.7966 8.67118 12.151 9.16422C12.5054 9.67266 12.3821 10.366 11.8891 10.7204C9.11574 12.6925 7.31308 15.7432 6.97412 19.1174C6.91249 19.7028 6.41946 20.1342 5.84938 20.1342Z" fill="#38A312"/>
<path id="Vector_3" d="M24.7204 32.9528C22.8253 33.8618 20.7915 34.3241 18.6653 34.3241C16.4467 34.3241 14.3359 33.831 12.3637 32.8295C11.809 32.5676 11.5933 31.8897 11.8707 31.335C12.1326 30.7804 12.8105 30.5647 13.3652 30.8266C14.3359 31.3196 15.3681 31.6586 16.4158 31.8589C17.8333 32.1362 19.2816 32.1516 20.6991 31.9051C21.7468 31.7202 22.7791 31.3967 23.7343 30.9344C24.3044 30.6725 24.9823 30.8882 25.2288 31.4583C25.5062 32.013 25.2905 32.6909 24.7204 32.9528Z" fill="#38A312"/>
<path id="Vector_4" d="M18.6496 3.54004C16.2614 3.54004 14.3047 5.48136 14.3047 7.88491C14.3047 10.2885 16.246 12.2298 18.6496 12.2298C21.0531 12.2298 22.9944 10.2885 22.9944 7.88491C22.9944 5.48136 21.0531 3.54004 18.6496 3.54004Z" fill="#38A312"/>
<path id="Vector_5" d="M7.86831 21.8135C5.48017 21.8135 3.52344 23.7548 3.52344 26.1583C3.52344 28.5619 5.46476 30.5032 7.86831 30.5032C10.2719 30.5032 12.2132 28.5619 12.2132 26.1583C12.2132 23.7548 10.2564 21.8135 7.86831 21.8135Z" fill="#38A312"/>
<path id="Vector_6" d="M29.2824 21.8135C26.8942 21.8135 24.9375 23.7548 24.9375 26.1583C24.9375 28.5619 26.8788 30.5032 29.2824 30.5032C31.6859 30.5032 33.6272 28.5619 33.6272 26.1583C33.6272 23.7548 31.6859 21.8135 29.2824 21.8135Z" fill="#38A312"/>
</g>
</g>
</svg>
