<svg width="149" height="62" viewBox="0 0 149 62" fill="none" xmlns="http://www.w3.org/2000/svg">
<path id="Vector 5" d="M147.133 5.25332C147.669 5.38691 148.212 5.06079 148.345 4.52491C148.479 3.98902 148.153 3.44631 147.617 3.31271L147.133 5.25332ZM0.0837978 58.9023C17.7272 64.2728 30.3845 62.1856 40.7907 56.2758C51.1058 50.4177 59.1413 40.8249 67.5873 31.4712C76.0814 22.064 85.0442 12.8239 97.3208 7.26333C109.562 1.71896 125.209 -0.212233 147.133 5.25332L147.617 3.31271C125.342 -2.2402 109.222 -0.322627 96.4956 5.44149C83.8054 11.1894 74.6026 20.7175 66.1029 30.1308C57.5549 39.5975 49.7681 48.8774 39.8031 54.5367C29.9291 60.1442 17.8483 62.2191 0.666202 56.9889L0.0837978 58.9023Z" fill="#38A312"/>
</svg>
