<svg width="35" height="35" viewBox="0 0 35 35" fill="none" xmlns="http://www.w3.org/2000/svg">
<rect width="35" height="35" rx="4" fill="#DFF1FF"/>
<path d="M26.0802 14.58V21.42C26.0802 22.54 25.4802 23.58 24.5102 24.15L18.5702 27.58C17.6002 28.14 16.4002 28.14 15.4202 27.58L9.48016 24.15C8.51016 23.59 7.91016 22.55 7.91016 21.42V14.58C7.91016 13.46 8.51016 12.42 9.48016 11.85L15.4202 8.42C16.3902 7.86 17.5902 7.86 18.5702 8.42L24.5102 11.85C25.4802 12.42 26.0802 13.45 26.0802 14.58Z" stroke="#3A56EB" stroke-width="1.5" stroke-linecap="round" stroke-linejoin="round"/>
<path d="M16.9999 16.9998C18.2867 16.9998 19.3299 15.9566 19.3299 14.6698C19.3299 13.383 18.2867 12.3398 16.9999 12.3398C15.7131 12.3398 14.6699 13.383 14.6699 14.6698C14.6699 15.9566 15.7131 16.9998 16.9999 16.9998Z" stroke="#3A56EB" stroke-width="1.5" stroke-linecap="round" stroke-linejoin="round"/>
<path d="M21 22.6599C21 20.8599 19.21 19.3999 17 19.3999C14.79 19.3999 13 20.8599 13 22.6599" stroke="#3A56EB" stroke-width="1.5" stroke-linecap="round" stroke-linejoin="round"/>
</svg>
