<svg width="19" height="19" viewBox="0 0 19 19" fill="none" xmlns="http://www.w3.org/2000/svg">
<path d="M16.6239 5.32812C16.6081 5.32812 16.5843 5.32812 16.5606 5.32812C12.3727 4.90854 8.19268 4.75021 4.05226 5.16979L2.43726 5.32812C2.10476 5.35979 1.81184 5.12229 1.78018 4.78979C1.74851 4.45729 1.98601 4.17229 2.31059 4.14062L3.92559 3.98229C8.13726 3.55479 12.4043 3.72104 16.6793 4.14062C17.0039 4.17229 17.2414 4.46521 17.2098 4.78979C17.186 5.09854 16.9248 5.32812 16.6239 5.32812Z" fill="#292D32"/>
<path d="M6.73106 4.52801C6.69939 4.52801 6.66772 4.52801 6.62814 4.52009C6.31147 4.46467 6.08981 4.15592 6.14522 3.83926L6.31939 2.80217C6.44606 2.04217 6.62022 0.989258 8.46481 0.989258H10.539C12.3915 0.989258 12.5656 2.08176 12.6844 2.81009L12.8586 3.83926C12.914 4.16384 12.6923 4.47259 12.3756 4.52009C12.0511 4.57551 11.7423 4.35384 11.6948 4.03717L11.5206 3.00801C11.4098 2.31926 11.3861 2.18467 10.5469 2.18467H8.47272C7.63356 2.18467 7.61772 2.29551 7.49897 3.00009L7.31689 4.02926C7.26939 4.32217 7.01606 4.52801 6.73106 4.52801Z" fill="#292D32"/>
<path d="M12.0419 18.0107H6.95938C4.19646 18.0107 4.08563 16.4827 3.99855 15.2477L3.48397 7.27566C3.46022 6.95108 3.71355 6.66608 4.03813 6.64233C4.37063 6.62649 4.64772 6.87191 4.67147 7.19649L5.18605 15.1686C5.27313 16.3719 5.3048 16.8232 6.95938 16.8232H12.0419C13.7044 16.8232 13.736 16.3719 13.8152 15.1686L14.3298 7.19649C14.3535 6.87191 14.6385 6.62649 14.9631 6.64233C15.2877 6.66608 15.541 6.94316 15.5173 7.27566L15.0027 15.2477C14.9156 16.4827 14.8048 18.0107 12.0419 18.0107Z" fill="#292D32"/>
<path d="M10.8159 13.6562H8.17969C7.8551 13.6562 7.58594 13.3871 7.58594 13.0625C7.58594 12.7379 7.8551 12.4688 8.17969 12.4688H10.8159C11.1405 12.4688 11.4097 12.7379 11.4097 13.0625C11.4097 13.3871 11.1405 13.6562 10.8159 13.6562Z" fill="#292D32"/>
<path d="M11.4779 10.4893H7.51953C7.19495 10.4893 6.92578 10.2201 6.92578 9.89551C6.92578 9.57092 7.19495 9.30176 7.51953 9.30176H11.4779C11.8024 9.30176 12.0716 9.57092 12.0716 9.89551C12.0716 10.2201 11.8024 10.4893 11.4779 10.4893Z" fill="#292D32"/>
</svg>
