<svg width="42" height="52" viewBox="0 0 42 52" fill="none" xmlns="http://www.w3.org/2000/svg">
<path d="M20.9997 1.99999L21.7863 0.159987C21.5377 0.0536203 21.2701 -0.0012207 20.9997 -0.0012207C20.7292 -0.0012207 20.4616 0.0536203 20.213 0.159987L20.9997 1.99999ZM20.9997 50L20.0077 51.736C20.3098 51.9086 20.6517 51.9993 20.9997 51.9993C21.3476 51.9993 21.6895 51.9086 21.9917 51.736L20.9997 50ZM20.2103 0.162654L3.16501 7.46665L4.73301 11.1467L21.7837 3.83999L20.2103 0.162654ZM0.333008 11.7573V30.0507H4.33301V11.7573H0.333008ZM9.40234 45.6773L20.0077 51.736L21.9917 48.264L11.3863 42.2027L9.40234 45.6773ZM21.9917 51.736L32.597 45.6773L30.613 42.2027L20.0077 48.264L21.9917 51.736ZM41.6663 30.048V11.76H37.6663V30.0533L41.6663 30.048ZM38.8397 7.46932L21.7863 0.162654L20.213 3.83732L37.2637 11.1467L38.8397 7.46932ZM41.6663 11.76C41.6663 9.89332 40.5543 8.20532 38.8397 7.46932L37.2637 11.1467C37.3834 11.1983 37.4854 11.2839 37.557 11.3929C37.6285 11.502 37.6666 11.6296 37.6663 11.76H41.6663ZM32.597 45.6773C35.3519 44.1031 37.6417 41.8286 39.2344 39.0843C40.8271 36.3401 41.6661 33.2236 41.6663 30.0507H37.6663C37.6658 32.5181 37.0132 34.9416 35.7745 37.0756C34.5359 39.2096 32.7553 40.9783 30.613 42.2027L32.597 45.6773ZM0.333008 30.0507C0.333293 33.2236 1.17229 36.3401 2.76498 39.0843C4.35768 41.8286 6.64747 44.1031 9.40234 45.6773L11.3863 42.2027C9.24369 40.9781 7.4628 39.2089 6.22414 37.0744C4.98548 34.9399 4.33307 32.5159 4.33301 30.048L0.333008 30.0507ZM3.15967 7.46665C2.32076 7.82659 1.60583 8.42466 1.1034 9.18683C0.600981 9.949 0.333127 10.8445 0.333008 11.7573H4.33301C4.33301 11.4907 4.49301 11.248 4.73834 11.1413L3.15967 7.46665Z" fill="#90050F"/>
<path d="M29 20.6666L18.3333 31.3333L13 26" stroke="#90050F" stroke-width="1.5" stroke-linecap="round" stroke-linejoin="round"/>
</svg>
