<svg width="64" height="64" viewBox="0 0 64 64" fill="none" xmlns="http://www.w3.org/2000/svg">
<path fill-rule="evenodd" clip-rule="evenodd" d="M31.9997 56C45.2543 56 55.9997 45.2547 55.9997 32C55.9997 18.7454 45.2543 8.00004 31.9997 8.00004C18.745 8.00004 7.99967 18.7454 7.99967 32C7.99967 45.2547 18.745 56 31.9997 56ZM31.9997 58.6667C46.7277 58.6667 58.6663 46.728 58.6663 32C58.6663 17.272 46.7277 5.33337 31.9997 5.33337C17.2717 5.33337 5.33301 17.272 5.33301 32C5.33301 46.728 17.2717 58.6667 31.9997 58.6667Z" fill="#90050F"/>
<path fill-rule="evenodd" clip-rule="evenodd" d="M45.8603 21.344C46.1226 21.581 46.2801 21.9124 46.2981 22.2655C46.3161 22.6185 46.1932 22.9643 45.9563 23.2267L28.1483 42.908L17.3803 32.6294C17.1385 32.3822 17.0022 32.0509 17 31.7052C16.9979 31.3595 17.1301 31.0264 17.3688 30.7763C17.6075 30.5262 17.934 30.3786 18.2794 30.3646C18.6248 30.3506 18.9622 30.4714 19.2203 30.7014L28.007 39.088L43.979 21.4387C44.0965 21.3088 44.2385 21.2033 44.3968 21.1284C44.5551 21.0534 44.7267 21.0103 44.9017 21.0016C45.0766 20.993 45.2516 21.0189 45.4165 21.0778C45.5815 21.1368 45.7332 21.2277 45.863 21.3454" fill="#90050F"/>
</svg>
