<svg width="65" height="64" viewBox="0 0 65 64" fill="none" xmlns="http://www.w3.org/2000/svg">
<path d="M39.0002 22.6666C36.9184 22.1269 34.0253 21.3333 31.7061 21.3333C20.2705 21.3333 11.0002 28.4469 11.0002 37.2221C11.0002 42.2647 14.0614 46.7586 18.8356 49.6695L17.5421 53.9357C17.2305 54.9631 17.9995 55.9999 19.0732 55.9999H23.7775C24.1238 55.9999 24.4609 55.8876 24.7379 55.6796L28.4568 52.8887H34.9552L38.6741 55.6796C38.9512 55.8876 39.2882 55.9999 39.6346 55.9999H44.3389C45.4125 55.9999 46.1816 54.9631 45.8698 53.9357L44.5765 49.6695C47.4208 47.9354 49.657 45.6391 51.0002 42.9999" stroke="#8F060E" stroke-width="1.5" stroke-linecap="round" stroke-linejoin="round"/>
<path d="M39.0002 22.6667L51.0002 18.6667L50.7762 28.3422L56.3336 30.6667V40.0001L51.1978 42.6668" stroke="#8F060E" stroke-width="1.5" stroke-linecap="round" stroke-linejoin="round"/>
<path d="M41.6668 34.6667C40.9306 34.6667 40.3335 34.0696 40.3335 33.3333C40.3335 32.5971 40.9306 32 41.6668 32C42.4031 32 43.0002 32.5971 43.0002 33.3333C43.0002 34.0696 42.4031 34.6667 41.6668 34.6667Z" fill="#8F060E" stroke="#8F060E" stroke-width="1.5" stroke-linecap="round" stroke-linejoin="round"/>
<path d="M5.66675 26.6667C5.66675 26.6667 5.66675 33.0667 11.0001 34.6667" stroke="#8F060E" stroke-width="1.5" stroke-linecap="round" stroke-linejoin="round"/>
<path d="M34.469 20.6746C34.813 19.6835 35.0002 18.617 35.0002 17.5059C35.0002 12.2559 30.8215 8 25.6668 8C20.5122 8 16.3335 12.2559 16.3335 17.5059C16.3335 20.017 17.2895 22.3007 18.8509 24" stroke="#8F060E" stroke-width="1.5" stroke-linejoin="round"/>
</svg>
