<svg width="23" height="23" viewBox="0 0 23 23" fill="none" xmlns="http://www.w3.org/2000/svg">
<path d="M16.5289 9.27887C16.6614 9.1367 16.7335 8.94865 16.73 8.75435C16.7266 8.56005 16.6479 8.37466 16.5105 8.23725C16.3731 8.09984 16.1877 8.02112 15.9934 8.01769C15.7991 8.01427 15.611 8.08639 15.4689 8.21887L9.99887 13.6889L7.52887 11.2189C7.38669 11.0864 7.19865 11.0143 7.00435 11.0177C6.81005 11.0211 6.62466 11.0998 6.48725 11.2372C6.34983 11.3747 6.27112 11.56 6.26769 11.7543C6.26427 11.9486 6.33639 12.1367 6.46887 12.2789L9.46887 15.2789C9.6095 15.4193 9.80012 15.4982 9.99887 15.4982C10.1976 15.4982 10.3882 15.4193 10.5289 15.2789L16.5289 9.27887Z" fill="#38A312"/>
<path fill-rule="evenodd" clip-rule="evenodd" d="M13.6357 0.699742C13.0163 0.245133 12.2681 0 11.4997 0C10.7314 0 9.98314 0.245133 9.36374 0.699742L7.98874 1.70974C7.71453 1.91071 7.39582 2.04245 7.05974 2.09374L5.37374 2.35274C4.61437 2.46917 3.91195 2.82482 3.36863 3.36796C2.82531 3.9111 2.46943 4.61341 2.35274 5.37274L2.09374 7.05974C2.04245 7.39582 1.91071 7.71453 1.70974 7.98874L0.699742 9.36374C0.245133 9.98314 0 10.7314 0 11.4997C0 12.2681 0.245133 13.0163 0.699742 13.6357L1.70974 15.0107C1.90974 15.2847 2.04274 15.6037 2.09374 15.9397L2.35274 17.6257C2.46917 18.3851 2.82482 19.0875 3.36796 19.6309C3.9111 20.1742 4.61341 20.5301 5.37274 20.6467L7.05974 20.9057C7.39574 20.9567 7.71474 21.0887 7.98874 21.2897L9.36374 22.2997C9.98314 22.7544 10.7314 22.9995 11.4997 22.9995C12.2681 22.9995 13.0163 22.7544 13.6357 22.2997L15.0107 21.2897C15.285 21.0888 15.6037 20.957 15.9397 20.9057L17.6257 20.6467C18.3851 20.5303 19.0875 20.1747 19.6309 19.6315C20.1742 19.0884 20.5301 18.3861 20.6467 17.6267L20.9057 15.9397C20.957 15.6037 21.0888 15.285 21.2897 15.0107L22.2997 13.6357C22.7544 13.0163 22.9995 12.2681 22.9995 11.4997C22.9995 10.7314 22.7544 9.98314 22.2997 9.36374L21.2897 7.98874C21.0888 7.71453 20.957 7.39582 20.9057 7.05974L20.6467 5.37374C20.5303 4.61437 20.1747 3.91195 19.6315 3.36863C19.0884 2.82531 18.3861 2.46943 17.6267 2.35274L15.9397 2.09374C15.6037 2.04245 15.285 1.91071 15.0107 1.70974L13.6357 0.699742ZM10.2517 1.90874C10.6137 1.64324 11.0509 1.50009 11.4997 1.50009C11.9486 1.50009 12.3858 1.64324 12.7477 1.90874L14.1237 2.91874C14.5927 3.26288 15.1378 3.48862 15.7127 3.57674L17.3987 3.83474C17.8426 3.90299 18.2531 4.11105 18.5705 4.42866C18.8879 4.74627 19.0957 5.15687 19.1637 5.60074L19.4237 7.28674C19.5114 7.86194 19.7368 8.40743 20.0807 8.87674L21.0907 10.2517C21.3562 10.6137 21.4994 11.0509 21.4994 11.4997C21.4994 11.9486 21.3562 12.3858 21.0907 12.7477L20.0807 14.1237C19.7366 14.5927 19.5109 15.1378 19.4227 15.7127L19.1647 17.3987C19.0965 17.8426 18.8884 18.2531 18.5708 18.5705C18.2532 18.8879 17.8426 19.0957 17.3987 19.1637L15.7127 19.4237C15.1375 19.5114 14.5921 19.7368 14.1227 20.0807L12.7477 21.0907C12.3858 21.3562 11.9486 21.4994 11.4997 21.4994C11.0509 21.4994 10.6137 21.3562 10.2517 21.0907L8.87574 20.0807C8.40682 19.7366 7.86168 19.5109 7.28674 19.4227L5.60074 19.1647C5.15673 19.0967 4.74602 18.8887 4.42839 18.5711C4.11076 18.2535 3.90279 17.8428 3.83474 17.3987L3.57674 15.7127C3.48878 15.1375 3.26303 14.592 2.91874 14.1227L1.90874 12.7477C1.64324 12.3858 1.50009 11.9486 1.50009 11.4997C1.50009 11.0509 1.64324 10.6137 1.90874 10.2517L2.91874 8.87574C3.26288 8.40682 3.48862 7.86168 3.57674 7.28674L3.83474 5.60074C3.90279 5.15673 4.11076 4.74602 4.42839 4.42839C4.74602 4.11076 5.15673 3.90279 5.60074 3.83474L7.28674 3.57674C7.86203 3.48878 8.40753 3.26303 8.87674 2.91874L10.2517 1.90874Z" fill="#38A312"/>
</svg>
