<svg width="49" height="49" viewBox="0 0 49 49" fill="none" xmlns="http://www.w3.org/2000/svg">
<g filter="url(#filter0_d_1223_23563)">
<path d="M24.5 6.00001C23.5189 5.99871 22.5534 6.24634 21.694 6.71971C20.8346 7.19308 20.1094 7.87672 19.5861 8.70667C19.1115 8.59215 18.6243 8.53802 18.1361 8.54556C16.667 8.60013 15.2735 9.21053 14.2372 10.2533C13.5571 10.9468 13.062 11.7999 12.7974 12.7345C12.5328 13.6691 12.5071 14.6552 12.7228 15.6022C11.8921 16.1221 11.2068 16.844 10.7306 17.7005C10.2545 18.5569 10.0031 19.5201 10 20.5C10.0004 21.4826 10.2505 22.4491 10.7268 23.3086C11.203 24.1681 11.8898 24.8925 12.7228 25.4139C12.5092 26.3623 12.5374 27.3492 12.8048 28.2838C13.0723 29.2185 13.5704 30.0709 14.2533 30.7628C14.9485 31.4564 15.8083 31.9622 16.7523 32.2327C17.6963 32.5032 18.6936 32.5296 19.6506 32.3094C20.1699 33.1272 20.8858 33.8019 21.7329 34.2719C22.58 34.7419 23.5313 34.9922 24.5 35C25.4769 35.0003 26.4381 34.7538 27.2943 34.2835C28.1505 33.8131 28.874 33.1341 29.3978 32.3094C30.3516 32.5232 31.3439 32.4923 32.2826 32.2199C33.2213 31.9474 34.0759 31.4421 34.7671 30.751C35.4583 30.0598 35.9635 29.2052 36.236 28.2665C36.5084 27.3278 36.5393 26.3355 36.3256 25.3817C37.1449 24.8575 37.8193 24.1357 38.2866 23.2826C38.754 22.4296 38.9993 21.4727 39 20.5C39.0003 19.5231 38.7538 18.5619 38.2835 17.7057C37.8131 16.8495 37.1341 16.126 36.3094 15.6022C36.5231 14.6484 36.4923 13.6561 36.2199 12.7174C35.9474 11.7787 35.4421 10.9241 34.751 10.2329C34.0598 9.54175 33.2052 9.03647 32.2665 8.76401C31.3278 8.49155 30.3355 8.46074 29.3817 8.67445C28.8575 7.85508 28.1357 7.1807 27.2826 6.71335C26.4296 6.246 25.4727 6.0007 24.5 6.00001Z" fill="#38A312"/>
<path d="M29.3321 17.2773L22.8877 23.7218L29.3321 17.2773Z" fill="#38A312"/>
<path d="M29.3321 17.2773L22.8877 23.7218" stroke="white" stroke-width="2" stroke-linecap="round" stroke-linejoin="round"/>
<path d="M19.666 20.5L22.8882 23.7222L19.666 20.5Z" fill="#38A312"/>
<path d="M19.666 20.5L22.8882 23.7222" stroke="white" stroke-width="2" stroke-linecap="round" stroke-linejoin="round"/>
</g>
<defs>
<filter id="filter0_d_1223_23563" x="0" y="0" width="49" height="49" filterUnits="userSpaceOnUse" color-interpolation-filters="sRGB">
<feFlood flood-opacity="0" result="BackgroundImageFix"/>
<feColorMatrix in="SourceAlpha" type="matrix" values="0 0 0 0 0 0 0 0 0 0 0 0 0 0 0 0 0 0 127 0" result="hardAlpha"/>
<feOffset dy="4"/>
<feGaussianBlur stdDeviation="5"/>
<feComposite in2="hardAlpha" operator="out"/>
<feColorMatrix type="matrix" values="0 0 0 0 0 0 0 0 0 0 0 0 0 0 0 0 0 0 0.25 0"/>
<feBlend mode="normal" in2="BackgroundImageFix" result="effect1_dropShadow_1223_23563"/>
<feBlend mode="normal" in="SourceGraphic" in2="effect1_dropShadow_1223_23563" result="shape"/>
</filter>
</defs>
</svg>
