<svg width="31" height="30" viewBox="0 0 31 30" fill="none" xmlns="http://www.w3.org/2000/svg">
<g clip-path="url(#clip0_1_1186)">
<path d="M17.2971 2.5C17.9537 2.50014 18.5832 2.76363 19.0474 3.2325L24.511 8.75C24.9753 9.21873 25.2362 9.85451 25.2364 10.5175V25C25.2364 25.663 24.9755 26.2989 24.5113 26.7678C24.047 27.2366 23.4173 27.5 22.7608 27.5H7.90723C7.25066 27.5 6.62099 27.2366 6.15672 26.7678C5.69246 26.2989 5.43164 25.663 5.43164 25V5C5.43164 4.33696 5.69246 3.70107 6.15672 3.23223C6.62099 2.76339 7.25066 2.5 7.90723 2.5H17.2971ZM15.334 5H7.90723V25H22.7608V12.5H17.1907C16.7291 12.5 16.2841 12.3264 15.9425 12.013C15.6008 11.6996 15.387 11.269 15.3427 10.805L15.334 10.625V5ZM17.8888 15.8113C18.0003 15.5137 18.22 15.2703 18.5031 15.1306C18.7862 14.9909 19.1113 14.9655 19.4123 15.0596C19.7133 15.1536 19.9674 15.36 20.1229 15.6367C20.2784 15.9134 20.3236 16.2396 20.2493 16.5487L20.206 16.6887L18.4656 21.3762C18.0435 22.5137 16.5 22.5638 15.9801 21.5263L15.9158 21.3762L15.334 19.81L14.7522 21.3762C14.3301 22.5137 12.7866 22.5638 12.2667 21.5263L12.2024 21.3762L10.462 16.6887C10.3521 16.3904 10.359 16.061 10.4814 15.7676C10.6038 15.4743 10.8323 15.2391 11.1205 15.1101C11.4087 14.9811 11.7347 14.968 12.0321 15.0734C12.3295 15.1789 12.5759 15.3949 12.721 15.6775L12.7792 15.8113L13.4773 17.69L14.0591 16.1238C14.4812 14.9863 16.0247 14.9363 16.5446 15.9738L16.6089 16.1238L17.1907 17.69L17.8888 15.8113ZM17.8096 5.5175V10H22.2483L17.8096 5.5175Z" fill="#38A312"/>
</g>
<defs>
<clipPath id="clip0_1_1186">
<rect width="29.7071" height="30" fill="white" transform="translate(0.480469)"/>
</clipPath>
</defs>
</svg>
