<svg width="20" height="24" viewBox="0 0 20 24" fill="none" xmlns="http://www.w3.org/2000/svg">
<g clip-path="url(#clip0_1_1192)">
<path d="M19.1927 4.58887L14.8656 0.656055C14.4014 0.23418 13.7722 -0.00488281 13.1172 -0.00488281H2.59082C1.22409 -0.000195312 0.115234 1.00762 0.115234 2.2498V21.7498C0.115234 22.992 1.22409 23.9998 2.59082 23.9998H17.4444C18.8111 23.9998 19.9199 22.992 19.9199 21.7498V6.18262C19.9199 5.58731 19.6569 5.01074 19.1927 4.58887ZM17.2432 5.99981H13.3184V2.43262L17.2432 5.99981ZM2.59082 21.7498V2.2498H10.8428V7.12481C10.8428 7.74824 11.3946 8.24981 12.0806 8.24981H17.4444V21.7498H2.59082ZM13.5247 10.4998H12.0393C11.8124 10.4998 11.6061 10.6123 11.4978 10.7951C10.5694 12.3467 10.3528 12.7826 10.0227 13.4998C9.30586 12.1357 9.66688 12.6889 8.54771 10.7951C8.4394 10.6123 8.22794 10.4998 8.00102 10.4998H6.51051C6.03086 10.4998 5.73688 10.9686 5.97413 11.3436L8.36204 14.9998L5.97413 18.6561C5.73173 19.0311 6.03086 19.4998 6.51051 19.4998H8.00102C8.22794 19.4998 8.43424 19.3873 8.54255 19.2045C9.66172 17.3295 9.72877 17.0951 10.0176 16.4998C10.7861 17.9154 10.3219 17.2451 11.4926 19.2045C11.6009 19.3873 11.8124 19.4998 12.0393 19.4998H13.5247C14.0043 19.4998 14.2983 19.0311 14.0611 18.6561L11.668 14.9998C11.7041 14.9482 13.2307 12.6326 14.0559 11.3436C14.2983 10.9686 13.9992 10.4998 13.5247 10.4998Z" fill="#38A312"/>
</g>
<defs>
<clipPath id="clip0_1_1192">
<rect width="19.8047" height="24" fill="white" transform="translate(0.115234)"/>
</clipPath>
</defs>
</svg>
