<svg width="138" height="39" viewBox="0 0 138 39" fill="none" xmlns="http://www.w3.org/2000/svg">
<path d="M16.6229 2H25.6217L22.0096 12.0943C15.652 13.2115 10.7894 19.3625 10.7894 26.783C10.7894 30.1305 11.779 33.2197 13.4489 35.7049H1.5L12.4236 5.17808C13.1104 3.25863 14.7735 2 16.6229 2Z" fill="#7C3AED"/>
<path d="M31.3172 2H22.3184L25.9153 12.0517C32.3994 13.0452 37.3945 19.262 37.3945 26.783C37.3945 30.1305 36.4049 33.2197 34.735 35.7049H46.4401L35.5165 5.17809C34.8297 3.25863 33.1666 2 31.3172 2Z" fill="#4C1D95"/>
<path d="M15.0183 34.7336C13.4805 32.5436 12.5635 29.7831 12.5635 26.7831C12.5635 19.6657 17.7251 13.896 24.0922 13.896C30.4594 13.896 35.621 19.6657 35.621 26.7831C35.621 29.7831 34.704 32.5436 33.1662 34.7336C30.6417 32.8542 27.4989 31.7397 24.0922 31.7397C20.6856 31.7397 17.5428 32.8542 15.0183 34.7336Z" fill="#4C1D95"/>
<path d="M66.4609 13.8555L61.8203 28H58.082L64.4219 10.9375H66.8008L66.4609 13.8555ZM70.3164 28L65.6641 13.8555L65.2891 10.9375H67.6914L74.0664 28H70.3164ZM70.1055 21.6484V24.4023H61.0938V21.6484H70.1055ZM82.293 24.4961C82.293 24.2539 82.2227 24.0352 82.082 23.8398C81.9414 23.6445 81.6797 23.4648 81.2969 23.3008C80.9219 23.1289 80.3789 22.9727 79.668 22.832C79.0273 22.6914 78.4297 22.5156 77.875 22.3047C77.3281 22.0859 76.8516 21.8242 76.4453 21.5195C76.0469 21.2148 75.7344 20.8555 75.5078 20.4414C75.2812 20.0195 75.168 19.5391 75.168 19C75.168 18.4688 75.2812 17.9688 75.5078 17.5C75.7422 17.0312 76.0742 16.6172 76.5039 16.2578C76.9414 15.8906 77.4727 15.6055 78.0977 15.4023C78.7305 15.1914 79.4414 15.0859 80.2305 15.0859C81.332 15.0859 82.2773 15.2617 83.0664 15.6133C83.8633 15.9648 84.4727 16.4492 84.8945 17.0664C85.3242 17.6758 85.5391 18.3711 85.5391 19.1523H82.1641C82.1641 18.8242 82.0938 18.5312 81.9531 18.2734C81.8203 18.0078 81.6094 17.8008 81.3203 17.6523C81.0391 17.4961 80.6719 17.418 80.2188 17.418C79.8438 17.418 79.5195 17.4844 79.2461 17.6172C78.9727 17.7422 78.7617 17.9141 78.6133 18.1328C78.4727 18.3438 78.4023 18.5781 78.4023 18.8359C78.4023 19.0312 78.4414 19.207 78.5195 19.3633C78.6055 19.5117 78.7422 19.6484 78.9297 19.7734C79.1172 19.8984 79.3594 20.0156 79.6562 20.125C79.9609 20.2266 80.3359 20.3203 80.7812 20.4062C81.6953 20.5938 82.5117 20.8398 83.2305 21.1445C83.9492 21.4414 84.5195 21.8477 84.9414 22.3633C85.3633 22.8711 85.5742 23.5391 85.5742 24.3672C85.5742 24.9297 85.4492 25.4453 85.1992 25.9141C84.9492 26.3828 84.5898 26.793 84.1211 27.1445C83.6523 27.4883 83.0898 27.7578 82.4336 27.9531C81.7852 28.1406 81.0547 28.2344 80.2422 28.2344C79.0625 28.2344 78.0625 28.0234 77.2422 27.6016C76.4297 27.1797 75.8125 26.6445 75.3906 25.9961C74.9766 25.3398 74.7695 24.668 74.7695 23.9805H77.9688C77.9844 24.4414 78.1016 24.8125 78.3203 25.0938C78.5469 25.375 78.832 25.5781 79.1758 25.7031C79.5273 25.8281 79.9062 25.8906 80.3125 25.8906C80.75 25.8906 81.1133 25.832 81.4023 25.7148C81.6914 25.5898 81.9102 25.4258 82.0586 25.2227C82.2148 25.0117 82.293 24.7695 82.293 24.4961ZM93.9766 15.3203V17.7109H86.5938V15.3203H93.9766ZM88.4219 12.1914H91.7969V24.1797C91.7969 24.5469 91.8438 24.8281 91.9375 25.0234C92.0391 25.2188 92.1875 25.3555 92.3828 25.4336C92.5781 25.5039 92.8242 25.5391 93.1211 25.5391C93.332 25.5391 93.5195 25.5312 93.6836 25.5156C93.8555 25.4922 94 25.4688 94.1172 25.4453L94.1289 27.9297C93.8398 28.0234 93.5273 28.0977 93.1914 28.1523C92.8555 28.207 92.4844 28.2344 92.0781 28.2344C91.3359 28.2344 90.6875 28.1133 90.1328 27.8711C89.5859 27.6211 89.1641 27.2227 88.8672 26.6758C88.5703 26.1289 88.4219 25.4102 88.4219 24.5195V12.1914ZM99.2734 18.0859V28H95.8984V15.3203H99.0742L99.2734 18.0859ZM103.094 15.2383L103.035 18.3672C102.871 18.3438 102.672 18.3242 102.438 18.3086C102.211 18.2852 102.004 18.2734 101.816 18.2734C101.34 18.2734 100.926 18.3359 100.574 18.4609C100.23 18.5781 99.9414 18.7539 99.707 18.9883C99.4805 19.2227 99.3086 19.5078 99.1914 19.8438C99.082 20.1797 99.0195 20.5625 99.0039 20.9922L98.3242 20.7812C98.3242 19.9609 98.4062 19.207 98.5703 18.5195C98.7344 17.8242 98.9727 17.2188 99.2852 16.7031C99.6055 16.1875 99.9961 15.7891 100.457 15.5078C100.918 15.2266 101.445 15.0859 102.039 15.0859C102.227 15.0859 102.418 15.1016 102.613 15.1328C102.809 15.1562 102.969 15.1914 103.094 15.2383ZM103.797 21.7891V21.543C103.797 20.6133 103.93 19.7578 104.195 18.9766C104.461 18.1875 104.848 17.5039 105.355 16.9258C105.863 16.3477 106.488 15.8984 107.23 15.5781C107.973 15.25 108.824 15.0859 109.785 15.0859C110.746 15.0859 111.602 15.25 112.352 15.5781C113.102 15.8984 113.73 16.3477 114.238 16.9258C114.754 17.5039 115.145 18.1875 115.41 18.9766C115.676 19.7578 115.809 20.6133 115.809 21.543V21.7891C115.809 22.7109 115.676 23.5664 115.41 24.3555C115.145 25.1367 114.754 25.8203 114.238 26.4062C113.73 26.9844 113.105 27.4336 112.363 27.7539C111.621 28.0742 110.77 28.2344 109.809 28.2344C108.848 28.2344 107.992 28.0742 107.242 27.7539C106.5 27.4336 105.871 26.9844 105.355 26.4062C104.848 25.8203 104.461 25.1367 104.195 24.3555C103.93 23.5664 103.797 22.7109 103.797 21.7891ZM107.172 21.543V21.7891C107.172 22.3203 107.219 22.8164 107.312 23.2773C107.406 23.7383 107.555 24.1445 107.758 24.4961C107.969 24.8398 108.242 25.1094 108.578 25.3047C108.914 25.5 109.324 25.5977 109.809 25.5977C110.277 25.5977 110.68 25.5 111.016 25.3047C111.352 25.1094 111.621 24.8398 111.824 24.4961C112.027 24.1445 112.176 23.7383 112.27 23.2773C112.371 22.8164 112.422 22.3203 112.422 21.7891V21.543C112.422 21.0273 112.371 20.543 112.27 20.0898C112.176 19.6289 112.023 19.2227 111.812 18.8711C111.609 18.5117 111.34 18.2305 111.004 18.0273C110.668 17.8242 110.262 17.7227 109.785 17.7227C109.309 17.7227 108.902 17.8242 108.566 18.0273C108.238 18.2305 107.969 18.5117 107.758 18.8711C107.555 19.2227 107.406 19.6289 107.312 20.0898C107.219 20.543 107.172 21.0273 107.172 21.543ZM121.258 17.9453V28H117.871V15.3203H121.047L121.258 17.9453ZM120.789 21.2148H119.852C119.852 20.332 119.957 19.5195 120.168 18.7773C120.387 18.0273 120.703 17.3789 121.117 16.832C121.539 16.2773 122.059 15.8477 122.676 15.543C123.293 15.2383 124.008 15.0859 124.82 15.0859C125.383 15.0859 125.898 15.1719 126.367 15.3438C126.836 15.5078 127.238 15.7695 127.574 16.1289C127.918 16.4805 128.184 16.9414 128.371 17.5117C128.559 18.0742 128.652 18.75 128.652 19.5391V28H125.277V19.9141C125.277 19.3359 125.199 18.8906 125.043 18.5781C124.887 18.2656 124.664 18.0469 124.375 17.9219C124.094 17.7969 123.754 17.7344 123.355 17.7344C122.918 17.7344 122.535 17.8242 122.207 18.0039C121.887 18.1836 121.621 18.4336 121.41 18.7539C121.199 19.0664 121.043 19.4336 120.941 19.8555C120.84 20.2773 120.789 20.7305 120.789 21.2148ZM128.336 20.8281L127.129 20.9805C127.129 20.1523 127.23 19.3828 127.434 18.6719C127.645 17.9609 127.953 17.3359 128.359 16.7969C128.773 16.2578 129.285 15.8398 129.895 15.543C130.504 15.2383 131.207 15.0859 132.004 15.0859C132.613 15.0859 133.168 15.1758 133.668 15.3555C134.168 15.5273 134.594 15.8047 134.945 16.1875C135.305 16.5625 135.578 17.0547 135.766 17.6641C135.961 18.2734 136.059 19.0195 136.059 19.9023V28H132.672V19.9023C132.672 19.3164 132.594 18.8711 132.438 18.5664C132.289 18.2539 132.07 18.0391 131.781 17.9219C131.5 17.7969 131.164 17.7344 130.773 17.7344C130.367 17.7344 130.012 17.8164 129.707 17.9805C129.402 18.1367 129.148 18.3555 128.945 18.6367C128.742 18.918 128.59 19.2461 128.488 19.6211C128.387 19.9883 128.336 20.3906 128.336 20.8281Z" fill="#0F172A"/>
</svg>
