<svg width="116" height="33" viewBox="0 0 116 33" fill="none" xmlns="http://www.w3.org/2000/svg">
<g clip-path="url(#clip0_36_4515)">
<path d="M38.7812 16.0127C38.7812 11.8985 37.1468 7.95275 34.2376 5.04356C31.3284 2.13437 27.3827 0.500001 23.2685 0.5C19.1543 0.499999 15.2086 2.13437 12.2994 5.04356C9.39023 7.95275 7.75586 11.8985 7.75586 16.0127H12.6036C14.21 16.0127 15.4628 14.6665 16.0512 13.1717C16.4375 12.1903 17.0237 11.2884 17.7839 10.5281C19.2385 9.07352 21.2114 8.25634 23.2685 8.25634C25.3256 8.25634 27.2985 9.07352 28.7531 10.5281C30.2077 11.9827 31.0248 13.9556 31.0248 16.0127H38.7812Z" fill="#0D9488"/>
<path d="M29.8444 21.9491C30.624 20.067 31.0253 18.0498 31.0253 16.0127H38.7808C38.7808 24.5801 31.8355 31.5253 23.2681 31.5253C21.9264 31.5253 20.6244 31.355 19.3828 31.0348C20.0853 30.8538 20.7758 30.6233 21.449 30.3445C23.3311 29.5649 25.0412 28.4223 26.4817 26.9818C27.9222 25.5413 29.0649 23.8312 29.8444 21.9491Z" fill="#FDBA74"/>
<path d="M0 16.0127C-2.91433e-07 18.0499 0.401247 20.0671 1.18083 21.9492C1.96042 23.8313 3.10307 25.5414 4.54356 26.9819C5.98404 28.4223 7.69415 29.565 9.57623 30.3446C11.4583 31.1242 13.4755 31.5254 15.5127 31.5254C17.5498 31.5254 19.567 31.1242 21.4491 30.3446C23.3312 29.565 25.0413 28.4223 26.4818 26.9819C27.9223 25.5414 29.0649 23.8313 29.8445 21.9492C30.6241 20.0671 31.0254 18.0499 31.0254 16.0127H26.1776C24.5712 16.0127 23.3184 17.3589 22.73 18.8536C22.7133 18.8962 22.6961 18.9386 22.6786 18.981C22.2888 19.922 21.7175 20.7771 20.9972 21.4973C20.277 22.2175 19.4219 22.7889 18.4809 23.1787C17.5399 23.5685 16.5313 23.7691 15.5127 23.7691C14.4941 23.7691 13.4855 23.5685 12.5445 23.1787C11.6034 22.7889 10.7484 22.2175 10.0281 21.4973C9.30787 20.7771 8.73655 19.922 8.34676 18.981C7.95696 18.0399 7.75634 17.0313 7.75634 16.0127H0Z" fill="#FB923C"/>
<path d="M0.00195312 16.0127C0.00195312 7.44524 6.9472 0.5 15.5146 0.5C16.856 0.5 18.1576 0.670246 19.3991 0.990323C16.7352 1.67657 14.2778 3.06535 12.2995 5.04357C9.39029 7.95273 7.75594 11.8985 7.75594 16.0127H0.00195312Z" fill="#2DD4BF"/>
<path d="M57.5508 22.0977C57.9648 22.0977 58.332 22.0195 58.6523 21.8633C58.9727 21.6992 59.2227 21.4727 59.4023 21.1836C59.5898 20.8867 59.6875 20.5391 59.6953 20.1406H62.8711C62.8633 21.0312 62.625 21.8242 62.1562 22.5195C61.6875 23.207 61.0586 23.75 60.2695 24.1484C59.4805 24.5391 58.5977 24.7344 57.6211 24.7344C56.6367 24.7344 55.7773 24.5703 55.043 24.2422C54.3164 23.9141 53.7109 23.4609 53.2266 22.8828C52.7422 22.2969 52.3789 21.6172 52.1367 20.8438C51.8945 20.0625 51.7734 19.2266 51.7734 18.3359V17.9961C51.7734 17.0977 51.8945 16.2617 52.1367 15.4883C52.3789 14.707 52.7422 14.0273 53.2266 13.4492C53.7109 12.8633 54.3164 12.4062 55.043 12.0781C55.7695 11.75 56.6211 11.5859 57.5977 11.5859C58.6367 11.5859 59.5469 11.7852 60.3281 12.1836C61.1172 12.582 61.7344 13.1523 62.1797 13.8945C62.6328 14.6289 62.8633 15.5 62.8711 16.5078H59.6953C59.6875 16.0859 59.5977 15.7031 59.4258 15.3594C59.2617 15.0156 59.0195 14.7422 58.6992 14.5391C58.3867 14.3281 58 14.2227 57.5391 14.2227C57.0469 14.2227 56.6445 14.3281 56.332 14.5391C56.0195 14.7422 55.7773 15.0234 55.6055 15.3828C55.4336 15.7344 55.3125 16.1367 55.2422 16.5898C55.1797 17.0352 55.1484 17.5039 55.1484 17.9961V18.3359C55.1484 18.8281 55.1797 19.3008 55.2422 19.7539C55.3047 20.207 55.4219 20.6094 55.5938 20.9609C55.7734 21.3125 56.0195 21.5898 56.332 21.793C56.6445 21.9961 57.0508 22.0977 57.5508 22.0977ZM68.3906 11.8203V24.5H65.0039V11.8203H68.3906ZM64.793 8.51562C64.793 8.02344 64.9648 7.61719 65.3086 7.29688C65.6523 6.97656 66.1133 6.81641 66.6914 6.81641C67.2617 6.81641 67.7188 6.97656 68.0625 7.29688C68.4141 7.61719 68.5898 8.02344 68.5898 8.51562C68.5898 9.00781 68.4141 9.41406 68.0625 9.73438C67.7188 10.0547 67.2617 10.2148 66.6914 10.2148C66.1133 10.2148 65.6523 10.0547 65.3086 9.73438C64.9648 9.41406 64.793 9.00781 64.793 8.51562ZM76.418 22.0977C76.832 22.0977 77.1992 22.0195 77.5195 21.8633C77.8398 21.6992 78.0898 21.4727 78.2695 21.1836C78.457 20.8867 78.5547 20.5391 78.5625 20.1406H81.7383C81.7305 21.0312 81.4922 21.8242 81.0234 22.5195C80.5547 23.207 79.9258 23.75 79.1367 24.1484C78.3477 24.5391 77.4648 24.7344 76.4883 24.7344C75.5039 24.7344 74.6445 24.5703 73.9102 24.2422C73.1836 23.9141 72.5781 23.4609 72.0938 22.8828C71.6094 22.2969 71.2461 21.6172 71.0039 20.8438C70.7617 20.0625 70.6406 19.2266 70.6406 18.3359V17.9961C70.6406 17.0977 70.7617 16.2617 71.0039 15.4883C71.2461 14.707 71.6094 14.0273 72.0938 13.4492C72.5781 12.8633 73.1836 12.4062 73.9102 12.0781C74.6367 11.75 75.4883 11.5859 76.4648 11.5859C77.5039 11.5859 78.4141 11.7852 79.1953 12.1836C79.9844 12.582 80.6016 13.1523 81.0469 13.8945C81.5 14.6289 81.7305 15.5 81.7383 16.5078H78.5625C78.5547 16.0859 78.4648 15.7031 78.293 15.3594C78.1289 15.0156 77.8867 14.7422 77.5664 14.5391C77.2539 14.3281 76.8672 14.2227 76.4062 14.2227C75.9141 14.2227 75.5117 14.3281 75.1992 14.5391C74.8867 14.7422 74.6445 15.0234 74.4727 15.3828C74.3008 15.7344 74.1797 16.1367 74.1094 16.5898C74.0469 17.0352 74.0156 17.5039 74.0156 17.9961V18.3359C74.0156 18.8281 74.0469 19.3008 74.1094 19.7539C74.1719 20.207 74.2891 20.6094 74.4609 20.9609C74.6406 21.3125 74.8867 21.5898 75.1992 21.793C75.5117 21.9961 75.918 22.0977 76.418 22.0977ZM87.2578 11.8203V24.5H83.8711V11.8203H87.2578ZM83.6602 8.51562C83.6602 8.02344 83.832 7.61719 84.1758 7.29688C84.5195 6.97656 84.9805 6.81641 85.5586 6.81641C86.1289 6.81641 86.5859 6.97656 86.9297 7.29688C87.2812 7.61719 87.457 8.02344 87.457 8.51562C87.457 9.00781 87.2812 9.41406 86.9297 9.73438C86.5859 10.0547 86.1289 10.2148 85.5586 10.2148C84.9805 10.2148 84.5195 10.0547 84.1758 9.73438C83.832 9.41406 83.6602 9.00781 83.6602 8.51562ZM89.5078 18.2891V18.043C89.5078 17.1133 89.6406 16.2578 89.9062 15.4766C90.1719 14.6875 90.5586 14.0039 91.0664 13.4258C91.5742 12.8477 92.1992 12.3984 92.9414 12.0781C93.6836 11.75 94.5352 11.5859 95.4961 11.5859C96.457 11.5859 97.3125 11.75 98.0625 12.0781C98.8125 12.3984 99.4414 12.8477 99.9492 13.4258C100.465 14.0039 100.855 14.6875 101.121 15.4766C101.387 16.2578 101.52 17.1133 101.52 18.043V18.2891C101.52 19.2109 101.387 20.0664 101.121 20.8555C100.855 21.6367 100.465 22.3203 99.9492 22.9062C99.4414 23.4844 98.8164 23.9336 98.0742 24.2539C97.332 24.5742 96.4805 24.7344 95.5195 24.7344C94.5586 24.7344 93.7031 24.5742 92.9531 24.2539C92.2109 23.9336 91.582 23.4844 91.0664 22.9062C90.5586 22.3203 90.1719 21.6367 89.9062 20.8555C89.6406 20.0664 89.5078 19.2109 89.5078 18.2891ZM92.8828 18.043V18.2891C92.8828 18.8203 92.9297 19.3164 93.0234 19.7773C93.1172 20.2383 93.2656 20.6445 93.4688 20.9961C93.6797 21.3398 93.9531 21.6094 94.2891 21.8047C94.625 22 95.0352 22.0977 95.5195 22.0977C95.9883 22.0977 96.3906 22 96.7266 21.8047C97.0625 21.6094 97.332 21.3398 97.5352 20.9961C97.7383 20.6445 97.8867 20.2383 97.9805 19.7773C98.082 19.3164 98.1328 18.8203 98.1328 18.2891V18.043C98.1328 17.5273 98.082 17.043 97.9805 16.5898C97.8867 16.1289 97.7344 15.7227 97.5234 15.3711C97.3203 15.0117 97.0508 14.7305 96.7148 14.5273C96.3789 14.3242 95.9727 14.2227 95.4961 14.2227C95.0195 14.2227 94.6133 14.3242 94.2773 14.5273C93.9492 14.7305 93.6797 15.0117 93.4688 15.3711C93.2656 15.7227 93.1172 16.1289 93.0234 16.5898C92.9297 17.043 92.8828 17.5273 92.8828 18.043Z" fill="#0F172A"/>
</g>
<defs>
<clipPath id="clip0_36_4515">
<rect width="116" height="32" fill="white" transform="translate(0 0.5)"/>
</clipPath>
</defs>
</svg>
