<svg width="138" height="33" viewBox="0 0 138 33" fill="none" xmlns="http://www.w3.org/2000/svg">
<g clip-path="url(#clip0_36_4519)">
<path d="M0 16.5C0 7.66344 7.16344 0.5 16 0.5H37C45.8366 0.5 53 7.66344 53 16.5V32.5H16C7.16344 32.5 0 25.3366 0 16.5Z" fill="#4F46E5"/>
<path d="M37 6.5H16C10.4772 6.5 6 10.9772 6 16.5C6 22.0228 10.4772 26.5 16 26.5H37C42.5228 26.5 47 22.0228 47 16.5C47 10.9772 42.5228 6.5 37 6.5Z" fill="#C4B5FD"/>
<path d="M16 21.5C18.7614 21.5 21 19.2614 21 16.5C21 13.7386 18.7614 11.5 16 11.5C13.2386 11.5 11 13.7386 11 16.5C11 19.2614 13.2386 21.5 16 21.5Z" fill="black"/>
<path d="M14 15.5C14.5523 15.5 15 15.0523 15 14.5C15 13.9477 14.5523 13.5 14 13.5C13.4477 13.5 13 13.9477 13 14.5C13 15.0523 13.4477 15.5 14 15.5Z" fill="white"/>
<path d="M38 21.5C40.7614 21.5 43 19.2614 43 16.5C43 13.7386 40.7614 11.5 38 11.5C35.2386 11.5 33 13.7386 33 16.5C33 19.2614 35.2386 21.5 38 21.5Z" fill="black"/>
<path d="M70.625 22.0391L73.4375 11.8203H76.9648L72.6875 24.5H70.5547L70.625 22.0391ZM68.6914 11.8203L71.5156 22.0508L71.5742 24.5H69.4297L65.1523 11.8203H68.6914ZM82.0391 11.8203V24.5H78.6523V11.8203H82.0391ZM78.4414 8.51562C78.4414 8.02344 78.6133 7.61719 78.957 7.29688C79.3008 6.97656 79.7617 6.81641 80.3398 6.81641C80.9102 6.81641 81.3672 6.97656 81.7109 7.29688C82.0625 7.61719 82.2383 8.02344 82.2383 8.51562C82.2383 9.00781 82.0625 9.41406 81.7109 9.73438C81.3672 10.0547 80.9102 10.2148 80.3398 10.2148C79.7617 10.2148 79.3008 10.0547 78.957 9.73438C78.6133 9.41406 78.4414 9.00781 78.4414 8.51562ZM90.6641 24.7344C89.6797 24.7344 88.7969 24.5781 88.0156 24.2656C87.2344 23.9453 86.5703 23.5039 86.0234 22.9414C85.4844 22.3789 85.0703 21.7266 84.7812 20.9844C84.4922 20.2344 84.3477 19.4375 84.3477 18.5938V18.125C84.3477 17.1641 84.4844 16.2852 84.7578 15.4883C85.0312 14.6914 85.4219 14 85.9297 13.4141C86.4453 12.8281 87.0703 12.3789 87.8047 12.0664C88.5391 11.7461 89.3672 11.5859 90.2891 11.5859C91.1875 11.5859 91.9844 11.7344 92.6797 12.0312C93.375 12.3281 93.957 12.75 94.4258 13.2969C94.9023 13.8438 95.2617 14.5 95.5039 15.2656C95.7461 16.0234 95.8672 16.8672 95.8672 17.7969V19.2031H85.7891V16.9531H92.5508V16.6953C92.5508 16.2266 92.4648 15.8086 92.293 15.4414C92.1289 15.0664 91.8789 14.7695 91.543 14.5508C91.207 14.332 90.7773 14.2227 90.2539 14.2227C89.8086 14.2227 89.4258 14.3203 89.1055 14.5156C88.7852 14.7109 88.5234 14.9844 88.3203 15.3359C88.125 15.6875 87.9766 16.1016 87.875 16.5781C87.7812 17.0469 87.7344 17.5625 87.7344 18.125V18.5938C87.7344 19.1016 87.8047 19.5703 87.9453 20C88.0938 20.4297 88.3008 20.8008 88.5664 21.1133C88.8398 21.4258 89.168 21.668 89.5508 21.8398C89.9414 22.0117 90.3828 22.0977 90.875 22.0977C91.4844 22.0977 92.0508 21.9805 92.5742 21.7461C93.1055 21.5039 93.5625 21.1406 93.9453 20.6562L95.5859 22.4375C95.3203 22.8203 94.957 23.1875 94.4961 23.5391C94.043 23.8906 93.4961 24.1797 92.8555 24.4062C92.2148 24.625 91.4844 24.7344 90.6641 24.7344ZM101.41 21.2188L104.047 11.8203H106.191L105.5 15.5117L102.863 24.5H101.07L101.41 21.2188ZM100.074 11.8203L101.961 21.207L102.137 24.5H100.027L96.8164 11.8203H100.074ZM108.605 21.0547L110.445 11.8203H113.715L110.504 24.5H108.406L108.605 21.0547ZM106.484 11.8203L109.109 21.1484L109.473 24.5H107.668L105.031 15.5234L104.363 11.8203H106.484ZM118.977 11.8203V24.5H115.59V11.8203H118.977ZM115.379 8.51562C115.379 8.02344 115.551 7.61719 115.895 7.29688C116.238 6.97656 116.699 6.81641 117.277 6.81641C117.848 6.81641 118.305 6.97656 118.648 7.29688C119 7.61719 119.176 8.02344 119.176 8.51562C119.176 9.00781 119 9.41406 118.648 9.73438C118.305 10.0547 117.848 10.2148 117.277 10.2148C116.699 10.2148 116.238 10.0547 115.895 9.73438C115.551 9.41406 115.379 9.00781 115.379 8.51562ZM121.227 18.2891V18.043C121.227 17.1133 121.359 16.2578 121.625 15.4766C121.891 14.6875 122.277 14.0039 122.785 13.4258C123.293 12.8477 123.918 12.3984 124.66 12.0781C125.402 11.75 126.254 11.5859 127.215 11.5859C128.176 11.5859 129.031 11.75 129.781 12.0781C130.531 12.3984 131.16 12.8477 131.668 13.4258C132.184 14.0039 132.574 14.6875 132.84 15.4766C133.105 16.2578 133.238 17.1133 133.238 18.043V18.2891C133.238 19.2109 133.105 20.0664 132.84 20.8555C132.574 21.6367 132.184 22.3203 131.668 22.9062C131.16 23.4844 130.535 23.9336 129.793 24.2539C129.051 24.5742 128.199 24.7344 127.238 24.7344C126.277 24.7344 125.422 24.5742 124.672 24.2539C123.93 23.9336 123.301 23.4844 122.785 22.9062C122.277 22.3203 121.891 21.6367 121.625 20.8555C121.359 20.0664 121.227 19.2109 121.227 18.2891ZM124.602 18.043V18.2891C124.602 18.8203 124.648 19.3164 124.742 19.7773C124.836 20.2383 124.984 20.6445 125.188 20.9961C125.398 21.3398 125.672 21.6094 126.008 21.8047C126.344 22 126.754 22.0977 127.238 22.0977C127.707 22.0977 128.109 22 128.445 21.8047C128.781 21.6094 129.051 21.3398 129.254 20.9961C129.457 20.6445 129.605 20.2383 129.699 19.7773C129.801 19.3164 129.852 18.8203 129.852 18.2891V18.043C129.852 17.5273 129.801 17.043 129.699 16.5898C129.605 16.1289 129.453 15.7227 129.242 15.3711C129.039 15.0117 128.77 14.7305 128.434 14.5273C128.098 14.3242 127.691 14.2227 127.215 14.2227C126.738 14.2227 126.332 14.3242 125.996 14.5273C125.668 14.7305 125.398 15.0117 125.188 15.3711C124.984 15.7227 124.836 16.1289 124.742 16.5898C124.648 17.043 124.602 17.5273 124.602 18.043Z" fill="#475569"/>
<path d="M36 15.5C36.5523 15.5 37 15.0523 37 14.5C37 13.9477 36.5523 13.5 36 13.5C35.4477 13.5 35 13.9477 35 14.5C35 15.0523 35.4477 15.5 36 15.5Z" fill="white"/>
</g>
<defs>
<clipPath id="clip0_36_4519">
<rect width="138" height="32" fill="white" transform="translate(0 0.5)"/>
</clipPath>
</defs>
</svg>
