<svg width="145" height="47" viewBox="0 0 145 47" fill="none" xmlns="http://www.w3.org/2000/svg">
<g clip-path="url(#clip0_36_4517)">
<path fill-rule="evenodd" clip-rule="evenodd" d="M26.6051 4.22402C25.1113 2.73089 22.69 2.73138 21.1969 4.22513L8.73553 16.6916L8.72491 16.6885L8.68553 16.6927C8.70175 16.7005 8.71767 16.7082 8.73327 16.716C6.54729 16.945 5.61981 17.6019 5.60931 18.4455C5.61301 18.7593 5.74176 19.0982 5.97825 19.45L5.96688 19.4614C7.95416 22.4587 17.7991 26.4126 24.7641 23.7337C19.5441 26.3437 7.25073 26.861 3.63998 21.7934C2.85584 22.6417 2.52776 23.7565 2.65131 24.8278C3.60517 30.0852 14.2694 31.5195 24.9337 23.9022L27.2414 26.2099C24.3698 29.1601 20.1281 46.2966 26.4308 43.6802C26.5803 43.5787 26.7072 43.4879 26.8798 43.3573L27.1607 43.0921C27.1445 43.0961 27.1284 43.0999 27.1124 43.1037L43.9924 27.168C45.5597 25.6883 45.5952 23.2064 44.0707 21.6825L26.6051 4.22402ZM24.7669 9.41731L25.3438 7.10962L25.9207 9.41731L27.6515 9.99424L25.9207 10.5712L25.3438 12.8789L24.7669 10.5712L23.0361 9.99424L24.7669 9.41731ZM17.626 16.9507L18.0106 15.4122L18.3952 16.9507L19.5491 17.3353L18.3952 17.7199L18.0106 19.2584L17.626 17.7199L16.4722 17.3353L17.626 16.9507ZM31.0216 29.9276L30.637 31.466L29.4832 31.8507L30.637 32.2353L31.0216 33.7737L31.4062 32.2353L32.5601 31.8507L31.4062 31.466L31.0216 29.9276Z" fill="#4F46E5"/>
<path fill-rule="evenodd" clip-rule="evenodd" d="M45.2922 5.75146C41.6835 5.75146 38.2612 7.35437 35.9509 10.1267L27.7319 19.9896L32.4779 12.8705L24.5999 16.2468C23.5994 16.6756 23.3484 17.9791 24.118 18.7488L26.6532 21.2839L25.3588 22.8372L28.2065 25.6848L29.7597 24.3904L32.2949 26.9256C33.0645 27.6952 34.3681 27.4442 34.7968 26.4438L38.1731 18.5658L31.0541 23.3118L40.917 15.0927C43.6893 12.7825 45.2922 9.36018 45.2922 5.75146ZM37.4613 13.5826C38.2476 14.3689 39.5225 14.3689 40.3089 13.5826C41.0952 12.7962 41.0952 11.5213 40.3089 10.735C39.5225 9.9486 38.2476 9.9486 37.4613 10.735C36.6749 11.5213 36.6749 12.7962 37.4613 13.5826Z" fill="#A78BFA"/>
<path opacity="0.6" d="M3.54785 21.6611C5.43331 28.1209 16.8965 27.7841 24.7613 23.735C19.4949 26.3666 7.03687 26.8692 3.54785 21.6611Z" fill="#64748B"/>
<path opacity="0.6" d="M26.4301 43.6802C21.1193 45.8848 23.2954 34.0644 25.8298 28.5244C23.9824 33.4486 22.4053 44.3037 27.16 43.0921L26.8791 43.3573C26.7065 43.4879 26.5796 43.5787 26.4301 43.6802Z" fill="#64748B"/>
<path d="M63.625 30.0391L66.4375 19.8203H69.9648L65.6875 32.5H63.5547L63.625 30.0391ZM61.6914 19.8203L64.5156 30.0508L64.5742 32.5H62.4297L58.1523 19.8203H61.6914ZM71.6875 15.4375H78.0508C79.3555 15.4375 80.4766 15.6328 81.4141 16.0234C82.3594 16.4141 83.0859 16.9922 83.5938 17.7578C84.1016 18.5234 84.3555 19.4648 84.3555 20.582C84.3555 21.4961 84.1992 22.2812 83.8867 22.9375C83.582 23.5859 83.1484 24.1289 82.5859 24.5664C82.0312 24.9961 81.3789 25.3398 80.6289 25.5977L79.5156 26.1836H73.9844L73.9609 23.4414H78.0742C78.6914 23.4414 79.2031 23.332 79.6094 23.1133C80.0156 22.8945 80.3203 22.5898 80.5234 22.1992C80.7344 21.8086 80.8398 21.3555 80.8398 20.8398C80.8398 20.293 80.7383 19.8203 80.5352 19.4219C80.332 19.0234 80.0234 18.7188 79.6094 18.5078C79.1953 18.2969 78.6758 18.1914 78.0508 18.1914H75.2031V32.5H71.6875V15.4375ZM81.2266 32.5L77.3359 24.8945L81.0508 24.8711L84.9883 32.3359V32.5H81.2266ZM86.3125 26.2891V26.043C86.3125 25.1133 86.4453 24.2578 86.7109 23.4766C86.9766 22.6875 87.3633 22.0039 87.8711 21.4258C88.3789 20.8477 89.0039 20.3984 89.7461 20.0781C90.4883 19.75 91.3398 19.5859 92.3008 19.5859C93.2617 19.5859 94.1172 19.75 94.8672 20.0781C95.6172 20.3984 96.2461 20.8477 96.7539 21.4258C97.2695 22.0039 97.6602 22.6875 97.9258 23.4766C98.1914 24.2578 98.3242 25.1133 98.3242 26.043V26.2891C98.3242 27.2109 98.1914 28.0664 97.9258 28.8555C97.6602 29.6367 97.2695 30.3203 96.7539 30.9062C96.2461 31.4844 95.6211 31.9336 94.8789 32.2539C94.1367 32.5742 93.2852 32.7344 92.3242 32.7344C91.3633 32.7344 90.5078 32.5742 89.7578 32.2539C89.0156 31.9336 88.3867 31.4844 87.8711 30.9062C87.3633 30.3203 86.9766 29.6367 86.7109 28.8555C86.4453 28.0664 86.3125 27.2109 86.3125 26.2891ZM89.6875 26.043V26.2891C89.6875 26.8203 89.7344 27.3164 89.8281 27.7773C89.9219 28.2383 90.0703 28.6445 90.2734 28.9961C90.4844 29.3398 90.7578 29.6094 91.0938 29.8047C91.4297 30 91.8398 30.0977 92.3242 30.0977C92.793 30.0977 93.1953 30 93.5312 29.8047C93.8672 29.6094 94.1367 29.3398 94.3398 28.9961C94.543 28.6445 94.6914 28.2383 94.7852 27.7773C94.8867 27.3164 94.9375 26.8203 94.9375 26.2891V26.043C94.9375 25.5273 94.8867 25.043 94.7852 24.5898C94.6914 24.1289 94.5391 23.7227 94.3281 23.3711C94.125 23.0117 93.8555 22.7305 93.5195 22.5273C93.1836 22.3242 92.7773 22.2227 92.3008 22.2227C91.8242 22.2227 91.418 22.3242 91.082 22.5273C90.7539 22.7305 90.4844 23.0117 90.2734 23.3711C90.0703 23.7227 89.9219 24.1289 89.8281 24.5898C89.7344 25.043 89.6875 25.5273 89.6875 26.043ZM103.773 14.4883V32.5H100.398V14.4883H103.773ZM111.766 19.8203L106.258 26.1016L103.305 29.0898L102.074 26.6523L104.418 23.6758L107.711 19.8203H111.766ZM108.262 32.5L104.512 26.6406L106.844 24.6016L112.152 32.5H108.262ZM118.82 32.7344C117.836 32.7344 116.953 32.5781 116.172 32.2656C115.391 31.9453 114.727 31.5039 114.18 30.9414C113.641 30.3789 113.227 29.7266 112.938 28.9844C112.648 28.2344 112.504 27.4375 112.504 26.5938V26.125C112.504 25.1641 112.641 24.2852 112.914 23.4883C113.188 22.6914 113.578 22 114.086 21.4141C114.602 20.8281 115.227 20.3789 115.961 20.0664C116.695 19.7461 117.523 19.5859 118.445 19.5859C119.344 19.5859 120.141 19.7344 120.836 20.0312C121.531 20.3281 122.113 20.75 122.582 21.2969C123.059 21.8438 123.418 22.5 123.66 23.2656C123.902 24.0234 124.023 24.8672 124.023 25.7969V27.2031H113.945V24.9531H120.707V24.6953C120.707 24.2266 120.621 23.8086 120.449 23.4414C120.285 23.0664 120.035 22.7695 119.699 22.5508C119.363 22.332 118.934 22.2227 118.41 22.2227C117.965 22.2227 117.582 22.3203 117.262 22.5156C116.941 22.7109 116.68 22.9844 116.477 23.3359C116.281 23.6875 116.133 24.1016 116.031 24.5781C115.938 25.0469 115.891 25.5625 115.891 26.125V26.5938C115.891 27.1016 115.961 27.5703 116.102 28C116.25 28.4297 116.457 28.8008 116.723 29.1133C116.996 29.4258 117.324 29.668 117.707 29.8398C118.098 30.0117 118.539 30.0977 119.031 30.0977C119.641 30.0977 120.207 29.9805 120.73 29.7461C121.262 29.5039 121.719 29.1406 122.102 28.6562L123.742 30.4375C123.477 30.8203 123.113 31.1875 122.652 31.5391C122.199 31.8906 121.652 32.1797 121.012 32.4062C120.371 32.625 119.641 32.7344 118.82 32.7344ZM132.156 19.8203V22.2109H124.773V19.8203H132.156ZM126.602 16.6914H129.977V28.6797C129.977 29.0469 130.023 29.3281 130.117 29.5234C130.219 29.7188 130.367 29.8555 130.562 29.9336C130.758 30.0039 131.004 30.0391 131.301 30.0391C131.512 30.0391 131.699 30.0312 131.863 30.0156C132.035 29.9922 132.18 29.9688 132.297 29.9453L132.309 32.4297C132.02 32.5234 131.707 32.5977 131.371 32.6523C131.035 32.707 130.664 32.7344 130.258 32.7344C129.516 32.7344 128.867 32.6133 128.312 32.3711C127.766 32.1211 127.344 31.7227 127.047 31.1758C126.75 30.6289 126.602 29.9102 126.602 29.0195V16.6914ZM140.934 28.9961C140.934 28.7539 140.863 28.5352 140.723 28.3398C140.582 28.1445 140.32 27.9648 139.938 27.8008C139.562 27.6289 139.02 27.4727 138.309 27.332C137.668 27.1914 137.07 27.0156 136.516 26.8047C135.969 26.5859 135.492 26.3242 135.086 26.0195C134.688 25.7148 134.375 25.3555 134.148 24.9414C133.922 24.5195 133.809 24.0391 133.809 23.5C133.809 22.9688 133.922 22.4688 134.148 22C134.383 21.5312 134.715 21.1172 135.145 20.7578C135.582 20.3906 136.113 20.1055 136.738 19.9023C137.371 19.6914 138.082 19.5859 138.871 19.5859C139.973 19.5859 140.918 19.7617 141.707 20.1133C142.504 20.4648 143.113 20.9492 143.535 21.5664C143.965 22.1758 144.18 22.8711 144.18 23.6523H140.805C140.805 23.3242 140.734 23.0312 140.594 22.7734C140.461 22.5078 140.25 22.3008 139.961 22.1523C139.68 21.9961 139.312 21.918 138.859 21.918C138.484 21.918 138.16 21.9844 137.887 22.1172C137.613 22.2422 137.402 22.4141 137.254 22.6328C137.113 22.8438 137.043 23.0781 137.043 23.3359C137.043 23.5312 137.082 23.707 137.16 23.8633C137.246 24.0117 137.383 24.1484 137.57 24.2734C137.758 24.3984 138 24.5156 138.297 24.625C138.602 24.7266 138.977 24.8203 139.422 24.9062C140.336 25.0938 141.152 25.3398 141.871 25.6445C142.59 25.9414 143.16 26.3477 143.582 26.8633C144.004 27.3711 144.215 28.0391 144.215 28.8672C144.215 29.4297 144.09 29.9453 143.84 30.4141C143.59 30.8828 143.23 31.293 142.762 31.6445C142.293 31.9883 141.73 32.2578 141.074 32.4531C140.426 32.6406 139.695 32.7344 138.883 32.7344C137.703 32.7344 136.703 32.5234 135.883 32.1016C135.07 31.6797 134.453 31.1445 134.031 30.4961C133.617 29.8398 133.41 29.168 133.41 28.4805H136.609C136.625 28.9414 136.742 29.3125 136.961 29.5938C137.188 29.875 137.473 30.0781 137.816 30.2031C138.168 30.3281 138.547 30.3906 138.953 30.3906C139.391 30.3906 139.754 30.332 140.043 30.2148C140.332 30.0898 140.551 29.9258 140.699 29.7227C140.855 29.5117 140.934 29.2695 140.934 28.9961Z" fill="#0F172A"/>
</g>
<defs>
<clipPath id="clip0_36_4517">
<rect width="145" height="46" fill="white" transform="translate(0 0.5)"/>
</clipPath>
</defs>
</svg>
