<svg width="124" height="35" viewBox="0 0 124 35" fill="none" xmlns="http://www.w3.org/2000/svg">
<path d="M7.91 16.3847C8.64777 13.4194 10.3564 10.7861 12.7639 8.90424C15.1714 7.02234 18.1393 6 21.195 6C24.2507 6 27.2186 7.02234 29.6261 8.90424C32.0336 10.7861 33.7422 13.4194 34.48 16.3847H33.28C31.2557 16.3549 29.2729 16.9599 27.61 18.1147C27.514 18.1842 27.4138 18.2477 27.31 18.3047H27.17C27.0662 18.2477 26.966 18.1842 26.87 18.1147C25.1924 16.9866 23.2166 16.3841 21.195 16.3841C19.1734 16.3841 17.1976 16.9866 15.52 18.1147C15.424 18.1842 15.3238 18.2477 15.22 18.3047H15.08C14.9762 18.2477 14.876 18.1842 14.78 18.1147C13.1171 16.9599 11.1343 16.3549 9.11 16.3847H7.91ZM31.12 22.6547C31.736 22.175 32.4995 21.924 33.28 21.9447H34.89V18.7347H33.28C31.9052 18.7181 30.5619 19.146 29.45 19.9547C28.8243 20.416 28.0674 20.6649 27.29 20.6649C26.5126 20.6649 25.7557 20.416 25.13 19.9547C23.9899 19.1611 22.6341 18.7356 21.245 18.7356C19.8559 18.7356 18.5001 19.1611 17.36 19.9547C16.7343 20.416 15.9774 20.6649 15.2 20.6649C14.4226 20.6649 13.6657 20.416 13.04 19.9547C11.9144 19.1356 10.5518 18.7072 9.16 18.7347H7.5V21.9447H9.11C9.89051 21.924 10.654 22.175 11.27 22.6547C12.408 23.4489 13.7623 23.8747 15.15 23.8747C16.5377 23.8747 17.892 23.4489 19.03 22.6547C19.6468 22.1765 20.4097 21.9257 21.19 21.9447C21.9708 21.9223 22.7348 22.1735 23.35 22.6547C24.4901 23.4484 25.8459 23.8738 27.235 23.8738C28.6241 23.8738 29.9799 23.4484 31.12 22.6547ZM31.12 28.3947C31.736 27.915 32.4995 27.664 33.28 27.6847H34.89V24.4747H33.28C31.9052 24.4581 30.5619 24.886 29.45 25.6947C28.8243 26.156 28.0674 26.4049 27.29 26.4049C26.5126 26.4049 25.7557 26.156 25.13 25.6947C23.9899 24.9011 22.6341 24.4757 21.245 24.4757C19.8559 24.4757 18.5001 24.9011 17.36 25.6947C16.7343 26.156 15.9774 26.4049 15.2 26.4049C14.4226 26.4049 13.6657 26.156 13.04 25.6947C11.9144 24.8757 10.5518 24.4472 9.16 24.4747H7.5V27.6847H9.11C9.89051 27.664 10.654 27.915 11.27 28.3947C12.408 29.1889 13.7623 29.6147 15.15 29.6147C16.5377 29.6147 17.892 29.1889 19.03 28.3947C19.6468 27.9165 20.4097 27.6657 21.19 27.6847C21.9708 27.6623 22.7348 27.9135 23.35 28.3947C24.4901 29.1884 25.8459 29.6138 27.235 29.6138C28.6241 29.6138 29.9799 29.1884 31.12 28.3947Z" fill="#0EA5E9"/>
<path d="M49.9395 22.1855L52.5762 12.7871H54.7207L54.0293 16.4785L51.3926 25.4668H49.5996L49.9395 22.1855ZM48.6035 12.7871L50.4902 22.1738L50.666 25.4668H48.5566L45.3457 12.7871H48.6035ZM57.1348 22.0215L58.9746 12.7871H62.2441L59.0332 25.4668H56.9355L57.1348 22.0215ZM55.0137 12.7871L57.6387 22.1152L58.002 25.4668H56.1973L53.5605 16.4902L52.8926 12.7871H55.0137ZM69.7793 25.7012C68.7949 25.7012 67.9121 25.5449 67.1309 25.2324C66.3496 24.9121 65.6855 24.4707 65.1387 23.9082C64.5996 23.3457 64.1855 22.6934 63.8965 21.9512C63.6074 21.2012 63.4629 20.4043 63.4629 19.5605V19.0918C63.4629 18.1309 63.5996 17.252 63.873 16.4551C64.1465 15.6582 64.5371 14.9668 65.0449 14.3809C65.5605 13.7949 66.1855 13.3457 66.9199 13.0332C67.6543 12.7129 68.4824 12.5527 69.4043 12.5527C70.3027 12.5527 71.0996 12.7012 71.7949 12.998C72.4902 13.2949 73.0723 13.7168 73.541 14.2637C74.0176 14.8105 74.377 15.4668 74.6191 16.2324C74.8613 16.9902 74.9824 17.834 74.9824 18.7637V20.1699H64.9043V17.9199H71.666V17.6621C71.666 17.1934 71.5801 16.7754 71.4082 16.4082C71.2441 16.0332 70.9941 15.7363 70.6582 15.5176C70.3223 15.2988 69.8926 15.1895 69.3691 15.1895C68.9238 15.1895 68.541 15.2871 68.2207 15.4824C67.9004 15.6777 67.6387 15.9512 67.4355 16.3027C67.2402 16.6543 67.0918 17.0684 66.9902 17.5449C66.8965 18.0137 66.8496 18.5293 66.8496 19.0918V19.5605C66.8496 20.0684 66.9199 20.5371 67.0605 20.9668C67.209 21.3965 67.416 21.7676 67.6816 22.0801C67.9551 22.3926 68.2832 22.6348 68.666 22.8066C69.0566 22.9785 69.498 23.0645 69.9902 23.0645C70.5996 23.0645 71.166 22.9473 71.6895 22.7129C72.2207 22.4707 72.6777 22.1074 73.0605 21.623L74.7012 23.4043C74.4355 23.7871 74.0723 24.1543 73.6113 24.5059C73.1582 24.8574 72.6113 25.1465 71.9707 25.373C71.3301 25.5918 70.5996 25.7012 69.7793 25.7012ZM83.748 22.6074V16.959C83.748 16.5527 83.6816 16.2051 83.5488 15.916C83.416 15.6191 83.209 15.3887 82.9277 15.2246C82.6543 15.0605 82.2988 14.9785 81.8613 14.9785C81.4863 14.9785 81.1621 15.0449 80.8887 15.1777C80.6152 15.3027 80.4043 15.4863 80.2559 15.7285C80.1074 15.9629 80.0332 16.2402 80.0332 16.5605H76.6582C76.6582 16.0215 76.7832 15.5098 77.0332 15.0254C77.2832 14.541 77.6465 14.1152 78.123 13.748C78.5996 13.373 79.166 13.0801 79.8223 12.8691C80.4863 12.6582 81.2285 12.5527 82.0488 12.5527C83.0332 12.5527 83.9082 12.7168 84.6738 13.0449C85.4395 13.373 86.041 13.8652 86.4785 14.5215C86.9238 15.1777 87.1465 15.998 87.1465 16.9824V22.4082C87.1465 23.1035 87.1895 23.6738 87.2754 24.1191C87.3613 24.5566 87.4863 24.9395 87.6504 25.2676V25.4668H84.2402C84.0762 25.123 83.9512 24.6934 83.8652 24.1777C83.7871 23.6543 83.748 23.1309 83.748 22.6074ZM84.1934 17.7441L84.2168 19.6543H82.3301C81.8848 19.6543 81.498 19.7051 81.1699 19.8066C80.8418 19.9082 80.5723 20.0527 80.3613 20.2402C80.1504 20.4199 79.9941 20.6309 79.8926 20.873C79.7988 21.1152 79.752 21.3809 79.752 21.6699C79.752 21.959 79.8184 22.2207 79.9512 22.4551C80.084 22.6816 80.2754 22.8613 80.5254 22.9941C80.7754 23.1191 81.0684 23.1816 81.4043 23.1816C81.9121 23.1816 82.3535 23.0801 82.7285 22.877C83.1035 22.6738 83.3926 22.4238 83.5957 22.127C83.8066 21.8301 83.916 21.5488 83.9238 21.2832L84.8145 22.7129C84.6895 23.0332 84.5176 23.3652 84.2988 23.709C84.0879 24.0527 83.8184 24.377 83.4902 24.6816C83.1621 24.9785 82.7676 25.2246 82.3066 25.4199C81.8457 25.6074 81.2988 25.7012 80.666 25.7012C79.8613 25.7012 79.1309 25.541 78.4746 25.2207C77.8262 24.8926 77.3105 24.4434 76.9277 23.873C76.5527 23.2949 76.3652 22.6387 76.3652 21.9043C76.3652 21.2402 76.4902 20.6504 76.7402 20.1348C76.9902 19.6191 77.3574 19.1855 77.8418 18.834C78.334 18.4746 78.9473 18.2051 79.6816 18.0254C80.416 17.8379 81.2676 17.7441 82.2363 17.7441H84.1934ZM93.873 23.0059L96.6855 12.7871H100.213L95.9355 25.4668H93.8027L93.873 23.0059ZM91.9395 12.7871L94.7637 23.0176L94.8223 25.4668H92.6777L88.4004 12.7871H91.9395ZM105.486 24.0371L108.85 12.7871H112.471L107.373 27.377C107.264 27.6973 107.115 28.041 106.928 28.4082C106.748 28.7754 106.502 29.123 106.189 29.4512C105.885 29.7871 105.498 30.0605 105.029 30.2715C104.568 30.4824 104.002 30.5879 103.33 30.5879C103.01 30.5879 102.748 30.5684 102.545 30.5293C102.342 30.4902 102.1 30.4355 101.818 30.3652V27.8926C101.904 27.8926 101.994 27.8926 102.088 27.8926C102.182 27.9004 102.271 27.9043 102.357 27.9043C102.803 27.9043 103.166 27.8535 103.447 27.752C103.729 27.6504 103.955 27.4941 104.127 27.2832C104.299 27.0801 104.436 26.8145 104.537 26.4863L105.486 24.0371ZM104.08 12.7871L106.834 21.9746L107.314 25.5488L105.018 25.7949L100.459 12.7871H104.08Z" fill="#0F172A"/>
</svg>
